M48
; DRILL file {KiCad (5.1.2)-2} date 6/19/2019 3:06:22 PM
; FORMAT={-:-/ absolute / inch / decimal}
; #@! TF.CreationDate,2019-06-19T15:06:22-04:00
; #@! TF.GenerationSoftware,Kicad,Pcbnew,(5.1.2)-2
FMAT,2
INCH
T1C0.0157
T2C0.0402
T3C0.1285
T4C0.0354
T5C0.1339
%
G90
G05
T1
X4.32Y-4.31
X5.14Y-4.22
X5.19Y-4.16
X5.21Y-4.65
X5.24Y-4.21
X5.4Y-4.21
X5.45Y-4.38
X5.46Y-4.16
X5.59Y-4.65
X5.72Y-4.96
X5.76Y-4.92
X5.8Y-4.96
X5.84Y-4.92
X5.88Y-4.96
X5.92Y-4.92
X5.96Y-4.96
X6.0Y-4.31
X6.0Y-4.92
X6.23Y-4.7194
X6.2357Y-4.5243
T2
X5.58Y-4.1
X6.08Y-4.1
X5.83Y-4.1
T3
X4.07Y-4.12
X4.07Y-4.88
X6.33Y-4.12
X6.33Y-4.88
T4
X4.3361Y-4.92
X4.6039Y-4.92
T5
X4.12Y-4.3549
X4.12Y-4.5651
T0
M30
