G04 #@! TF.GenerationSoftware,KiCad,Pcbnew,(5.1.2)-2*
G04 #@! TF.CreationDate,2019-06-19T11:54:50-04:00*
G04 #@! TF.ProjectId,binary_counter,62696e61-7279-45f6-936f-756e7465722e,rev?*
G04 #@! TF.SameCoordinates,Original*
G04 #@! TF.FileFunction,Copper,L2,Bot*
G04 #@! TF.FilePolarity,Positive*
%FSLAX46Y46*%
G04 Gerber Fmt 4.6, Leading zero omitted, Abs format (unit mm)*
G04 Created by KiCad (PCBNEW (5.1.2)-2) date 2019-06-19 11:54:50*
%MOMM*%
%LPD*%
G04 APERTURE LIST*
%ADD10C,2.020000*%
%ADD11R,1.800000X1.500000*%
%ADD12C,5.410200*%
%ADD13C,0.800000*%
%ADD14C,0.250000*%
%ADD15C,0.254000*%
G04 APERTURE END LIST*
D10*
X141732000Y-104140000D03*
X148082000Y-104140000D03*
X154432000Y-104140000D03*
D11*
X149860000Y-119148000D03*
X149860000Y-115548000D03*
X144780000Y-119148000D03*
X144780000Y-115548000D03*
X139700000Y-119148000D03*
X139700000Y-115548000D03*
X134620000Y-119148000D03*
X134620000Y-115548000D03*
X129540000Y-119148000D03*
X129540000Y-115548000D03*
X124460000Y-119148000D03*
X124460000Y-115548000D03*
X119380000Y-119148000D03*
X119380000Y-115548000D03*
X114300000Y-119148000D03*
X114300000Y-115548000D03*
X149860000Y-109452000D03*
X149860000Y-113052000D03*
X144780000Y-113052000D03*
X144780000Y-109452000D03*
X139700000Y-113052000D03*
X139700000Y-109452000D03*
X134620000Y-113052000D03*
X134620000Y-109452000D03*
X129540000Y-113052000D03*
X129540000Y-109452000D03*
X124460000Y-113052000D03*
X124460000Y-109452000D03*
X119380000Y-113052000D03*
X119380000Y-109452000D03*
X114300000Y-113052000D03*
X114300000Y-109452000D03*
D12*
X103378000Y-104648000D03*
X103378000Y-123952000D03*
X160782000Y-123952000D03*
X160782000Y-104648000D03*
D13*
X141986000Y-118110000D03*
X138430000Y-111252000D03*
X130556000Y-107188000D03*
X132334000Y-118110000D03*
X109728000Y-109474000D03*
X152400000Y-109474000D03*
X158388000Y-114916000D03*
X158242000Y-119872003D03*
X133096000Y-106934000D03*
X137160000Y-106934000D03*
X138684000Y-105664000D03*
X131826000Y-105664000D03*
X152400000Y-124968000D03*
X151384000Y-125984000D03*
X150368000Y-124968000D03*
X149352000Y-125983998D03*
X148336000Y-124968000D03*
X147320000Y-125983994D03*
X146304008Y-124968004D03*
X145287996Y-125984000D03*
D14*
X149860000Y-109452000D02*
X144780000Y-109452000D01*
X144780000Y-109452000D02*
X139700000Y-109452000D01*
X139700000Y-109452000D02*
X134620000Y-109452000D01*
X134620000Y-109452000D02*
X129540000Y-109452000D01*
X129540000Y-109452000D02*
X124460000Y-109452000D01*
X124460000Y-109452000D02*
X119380000Y-109452000D01*
X119380000Y-109452000D02*
X114300000Y-109452000D01*
X114300000Y-109452000D02*
X109750000Y-109452000D01*
X109750000Y-109452000D02*
X109728000Y-109474000D01*
X149860000Y-109452000D02*
X152378000Y-109452000D01*
X152378000Y-109452000D02*
X152400000Y-109474000D01*
X158314999Y-119872003D02*
X158242000Y-119872003D01*
X158967001Y-119220001D02*
X158314999Y-119872003D01*
X158388000Y-114916000D02*
X158967001Y-115495001D01*
X158967001Y-115495001D02*
X158967001Y-119220001D01*
X133096000Y-106934000D02*
X137160000Y-106934000D01*
X114300000Y-113052000D02*
X114300000Y-115548000D01*
X119380000Y-113052000D02*
X119380000Y-115548000D01*
X124460000Y-113052000D02*
X124460000Y-115548000D01*
X129540000Y-113052000D02*
X129540000Y-115548000D01*
X134620000Y-113052000D02*
X134620000Y-115548000D01*
X139700000Y-113052000D02*
X139700000Y-115548000D01*
X144780000Y-113052000D02*
X144780000Y-115548000D01*
X149860000Y-113052000D02*
X149860000Y-115548000D01*
X131826000Y-105664000D02*
X138684000Y-105664000D01*
X150010000Y-119148000D02*
X149860000Y-119148000D01*
X152400000Y-121538000D02*
X150010000Y-119148000D01*
X152400000Y-124968000D02*
X152400000Y-121538000D01*
X145930000Y-119148000D02*
X144780000Y-119148000D01*
X151384000Y-124602000D02*
X145930000Y-119148000D01*
X151384000Y-125984000D02*
X151384000Y-124602000D01*
X140850000Y-119148000D02*
X139700000Y-119148000D01*
X142748000Y-120904000D02*
X140850000Y-119148000D01*
X150368000Y-124968000D02*
X146304000Y-120904000D01*
X146304000Y-120904000D02*
X142748000Y-120904000D01*
X135770000Y-119148000D02*
X134620000Y-119148000D01*
X138288000Y-121666000D02*
X135770000Y-119148000D01*
X146240354Y-121666000D02*
X138288000Y-121666000D01*
X149352000Y-125983998D02*
X149282000Y-124784000D01*
X149282000Y-124784000D02*
X146240354Y-121666000D01*
X129540000Y-119888000D02*
X129540000Y-119148000D01*
X146050000Y-122682000D02*
X132080000Y-122682000D01*
X132080000Y-122682000D02*
X129540000Y-119888000D01*
X146050000Y-122682000D02*
X148336000Y-124968000D01*
X124460000Y-119634000D02*
X124460000Y-119148000D01*
X128270000Y-123698000D02*
X124460000Y-119634000D01*
X146107006Y-123698000D02*
X128270000Y-123698000D01*
X147320000Y-125983994D02*
X147320000Y-124910994D01*
X147320000Y-124910994D02*
X146107006Y-123698000D01*
X119380000Y-120148000D02*
X119380000Y-119148000D01*
X146304008Y-124968004D02*
X123952000Y-124968000D01*
X123952000Y-124968000D02*
X119380000Y-120148000D01*
X114300000Y-120148000D02*
X114300000Y-119148000D01*
X120136000Y-125984000D02*
X114300000Y-120148000D01*
X145287996Y-125984000D02*
X120136000Y-125984000D01*
D15*
G36*
X163170001Y-126340000D02*
G01*
X152356816Y-126340000D01*
X152379226Y-126285898D01*
X152419000Y-126085939D01*
X152419000Y-126003000D01*
X152501939Y-126003000D01*
X152701898Y-125963226D01*
X152890256Y-125885205D01*
X153059774Y-125771937D01*
X153203937Y-125627774D01*
X153317205Y-125458256D01*
X153395226Y-125269898D01*
X153435000Y-125069939D01*
X153435000Y-124866061D01*
X153395226Y-124666102D01*
X153317205Y-124477744D01*
X153203937Y-124308226D01*
X153160000Y-124264289D01*
X153160000Y-121575322D01*
X153163676Y-121537999D01*
X153160000Y-121500676D01*
X153160000Y-121500667D01*
X153149003Y-121389014D01*
X153105546Y-121245753D01*
X153034974Y-121113724D01*
X152967106Y-121031026D01*
X152963799Y-121026996D01*
X152963795Y-121026992D01*
X152940001Y-120997999D01*
X152911008Y-120974205D01*
X151706867Y-119770064D01*
X157207000Y-119770064D01*
X157207000Y-119973942D01*
X157246774Y-120173901D01*
X157324795Y-120362259D01*
X157438063Y-120531777D01*
X157582226Y-120675940D01*
X157751744Y-120789208D01*
X157940102Y-120867229D01*
X158140061Y-120907003D01*
X158343939Y-120907003D01*
X158543898Y-120867229D01*
X158732256Y-120789208D01*
X158901774Y-120675940D01*
X159045937Y-120531777D01*
X159159205Y-120362259D01*
X159237226Y-120173901D01*
X159274303Y-119987501D01*
X159478003Y-119783801D01*
X159507002Y-119760002D01*
X159537355Y-119723017D01*
X159601975Y-119644278D01*
X159672547Y-119512248D01*
X159694388Y-119440246D01*
X159716004Y-119368987D01*
X159727001Y-119257334D01*
X159727001Y-119257325D01*
X159730677Y-119220002D01*
X159727001Y-119182679D01*
X159727001Y-115532323D01*
X159730677Y-115495000D01*
X159727001Y-115457677D01*
X159727001Y-115457668D01*
X159716004Y-115346015D01*
X159672547Y-115202754D01*
X159601976Y-115070726D01*
X159601975Y-115070724D01*
X159530800Y-114983998D01*
X159507002Y-114955000D01*
X159478005Y-114931203D01*
X159423000Y-114876198D01*
X159423000Y-114814061D01*
X159383226Y-114614102D01*
X159305205Y-114425744D01*
X159191937Y-114256226D01*
X159047774Y-114112063D01*
X158878256Y-113998795D01*
X158689898Y-113920774D01*
X158489939Y-113881000D01*
X158286061Y-113881000D01*
X158086102Y-113920774D01*
X157897744Y-113998795D01*
X157728226Y-114112063D01*
X157584063Y-114256226D01*
X157470795Y-114425744D01*
X157392774Y-114614102D01*
X157353000Y-114814061D01*
X157353000Y-115017939D01*
X157392774Y-115217898D01*
X157470795Y-115406256D01*
X157584063Y-115575774D01*
X157728226Y-115719937D01*
X157897744Y-115833205D01*
X158086102Y-115911226D01*
X158207001Y-115935274D01*
X158207002Y-118837003D01*
X158140061Y-118837003D01*
X157940102Y-118876777D01*
X157751744Y-118954798D01*
X157582226Y-119068066D01*
X157438063Y-119212229D01*
X157324795Y-119381747D01*
X157246774Y-119570105D01*
X157207000Y-119770064D01*
X151706867Y-119770064D01*
X151398072Y-119461270D01*
X151398072Y-118398000D01*
X151385812Y-118273518D01*
X151349502Y-118153820D01*
X151290537Y-118043506D01*
X151211185Y-117946815D01*
X151114494Y-117867463D01*
X151004180Y-117808498D01*
X150884482Y-117772188D01*
X150760000Y-117759928D01*
X148960000Y-117759928D01*
X148835518Y-117772188D01*
X148715820Y-117808498D01*
X148605506Y-117867463D01*
X148508815Y-117946815D01*
X148429463Y-118043506D01*
X148370498Y-118153820D01*
X148334188Y-118273518D01*
X148321928Y-118398000D01*
X148321928Y-119898000D01*
X148334188Y-120022482D01*
X148370498Y-120142180D01*
X148429463Y-120252494D01*
X148508815Y-120349185D01*
X148605506Y-120428537D01*
X148715820Y-120487502D01*
X148835518Y-120523812D01*
X148960000Y-120536072D01*
X150323270Y-120536072D01*
X151640001Y-121852804D01*
X151640000Y-123783198D01*
X146493804Y-118637003D01*
X146470001Y-118607999D01*
X146354276Y-118513026D01*
X146318072Y-118493674D01*
X146318072Y-118398000D01*
X146305812Y-118273518D01*
X146269502Y-118153820D01*
X146210537Y-118043506D01*
X146131185Y-117946815D01*
X146034494Y-117867463D01*
X145924180Y-117808498D01*
X145804482Y-117772188D01*
X145680000Y-117759928D01*
X143880000Y-117759928D01*
X143755518Y-117772188D01*
X143635820Y-117808498D01*
X143525506Y-117867463D01*
X143428815Y-117946815D01*
X143349463Y-118043506D01*
X143290498Y-118153820D01*
X143254188Y-118273518D01*
X143241928Y-118398000D01*
X143241928Y-119898000D01*
X143254188Y-120022482D01*
X143290498Y-120142180D01*
X143291471Y-120144000D01*
X143045646Y-120144000D01*
X141404407Y-118625553D01*
X141390001Y-118607999D01*
X141349567Y-118574816D01*
X141338723Y-118564783D01*
X141320742Y-118551160D01*
X141274276Y-118513026D01*
X141261151Y-118506010D01*
X141249298Y-118497030D01*
X141238072Y-118491579D01*
X141238072Y-118398000D01*
X141225812Y-118273518D01*
X141189502Y-118153820D01*
X141130537Y-118043506D01*
X141051185Y-117946815D01*
X140954494Y-117867463D01*
X140844180Y-117808498D01*
X140724482Y-117772188D01*
X140600000Y-117759928D01*
X138800000Y-117759928D01*
X138675518Y-117772188D01*
X138555820Y-117808498D01*
X138445506Y-117867463D01*
X138348815Y-117946815D01*
X138269463Y-118043506D01*
X138210498Y-118153820D01*
X138174188Y-118273518D01*
X138161928Y-118398000D01*
X138161928Y-119898000D01*
X138174188Y-120022482D01*
X138210498Y-120142180D01*
X138269463Y-120252494D01*
X138348815Y-120349185D01*
X138445506Y-120428537D01*
X138555820Y-120487502D01*
X138675518Y-120523812D01*
X138800000Y-120536072D01*
X140600000Y-120536072D01*
X140724482Y-120523812D01*
X140844180Y-120487502D01*
X140954494Y-120428537D01*
X141039543Y-120358739D01*
X141631058Y-120906000D01*
X138602802Y-120906000D01*
X136333804Y-118637003D01*
X136310001Y-118607999D01*
X136194276Y-118513026D01*
X136158072Y-118493674D01*
X136158072Y-118398000D01*
X136145812Y-118273518D01*
X136109502Y-118153820D01*
X136050537Y-118043506D01*
X135971185Y-117946815D01*
X135874494Y-117867463D01*
X135764180Y-117808498D01*
X135644482Y-117772188D01*
X135520000Y-117759928D01*
X133720000Y-117759928D01*
X133595518Y-117772188D01*
X133475820Y-117808498D01*
X133365506Y-117867463D01*
X133268815Y-117946815D01*
X133189463Y-118043506D01*
X133130498Y-118153820D01*
X133094188Y-118273518D01*
X133081928Y-118398000D01*
X133081928Y-119898000D01*
X133094188Y-120022482D01*
X133130498Y-120142180D01*
X133189463Y-120252494D01*
X133268815Y-120349185D01*
X133365506Y-120428537D01*
X133475820Y-120487502D01*
X133595518Y-120523812D01*
X133720000Y-120536072D01*
X135520000Y-120536072D01*
X135644482Y-120523812D01*
X135764180Y-120487502D01*
X135874494Y-120428537D01*
X135930101Y-120382902D01*
X137469198Y-121922000D01*
X132416201Y-121922000D01*
X130936344Y-120294158D01*
X130970537Y-120252494D01*
X131029502Y-120142180D01*
X131065812Y-120022482D01*
X131078072Y-119898000D01*
X131078072Y-118398000D01*
X131065812Y-118273518D01*
X131029502Y-118153820D01*
X130970537Y-118043506D01*
X130891185Y-117946815D01*
X130794494Y-117867463D01*
X130684180Y-117808498D01*
X130564482Y-117772188D01*
X130440000Y-117759928D01*
X128640000Y-117759928D01*
X128515518Y-117772188D01*
X128395820Y-117808498D01*
X128285506Y-117867463D01*
X128188815Y-117946815D01*
X128109463Y-118043506D01*
X128050498Y-118153820D01*
X128014188Y-118273518D01*
X128001928Y-118398000D01*
X128001928Y-119898000D01*
X128014188Y-120022482D01*
X128050498Y-120142180D01*
X128109463Y-120252494D01*
X128188815Y-120349185D01*
X128285506Y-120428537D01*
X128395820Y-120487502D01*
X128515518Y-120523812D01*
X128640000Y-120536072D01*
X129102047Y-120536072D01*
X131285617Y-122938000D01*
X128599256Y-122938000D01*
X125956511Y-120119073D01*
X125985812Y-120022482D01*
X125998072Y-119898000D01*
X125998072Y-118398000D01*
X125985812Y-118273518D01*
X125949502Y-118153820D01*
X125890537Y-118043506D01*
X125811185Y-117946815D01*
X125714494Y-117867463D01*
X125604180Y-117808498D01*
X125484482Y-117772188D01*
X125360000Y-117759928D01*
X123560000Y-117759928D01*
X123435518Y-117772188D01*
X123315820Y-117808498D01*
X123205506Y-117867463D01*
X123108815Y-117946815D01*
X123029463Y-118043506D01*
X122970498Y-118153820D01*
X122934188Y-118273518D01*
X122921928Y-118398000D01*
X122921928Y-119898000D01*
X122934188Y-120022482D01*
X122970498Y-120142180D01*
X123029463Y-120252494D01*
X123108815Y-120349185D01*
X123205506Y-120428537D01*
X123315820Y-120487502D01*
X123435518Y-120523812D01*
X123560000Y-120536072D01*
X124263937Y-120536072D01*
X127698419Y-124199520D01*
X127705379Y-124208001D01*
X124278620Y-124208000D01*
X120667739Y-120401254D01*
X120731185Y-120349185D01*
X120810537Y-120252494D01*
X120869502Y-120142180D01*
X120905812Y-120022482D01*
X120918072Y-119898000D01*
X120918072Y-118398000D01*
X120905812Y-118273518D01*
X120869502Y-118153820D01*
X120810537Y-118043506D01*
X120731185Y-117946815D01*
X120634494Y-117867463D01*
X120524180Y-117808498D01*
X120404482Y-117772188D01*
X120280000Y-117759928D01*
X118480000Y-117759928D01*
X118355518Y-117772188D01*
X118235820Y-117808498D01*
X118125506Y-117867463D01*
X118028815Y-117946815D01*
X117949463Y-118043506D01*
X117890498Y-118153820D01*
X117854188Y-118273518D01*
X117841928Y-118398000D01*
X117841928Y-119898000D01*
X117854188Y-120022482D01*
X117890498Y-120142180D01*
X117949463Y-120252494D01*
X118028815Y-120349185D01*
X118125506Y-120428537D01*
X118235820Y-120487502D01*
X118355518Y-120523812D01*
X118480000Y-120536072D01*
X118724381Y-120536072D01*
X118734048Y-120555367D01*
X118740258Y-120563355D01*
X118745026Y-120572275D01*
X118786151Y-120622387D01*
X118802909Y-120643942D01*
X118809823Y-120651231D01*
X118839999Y-120688001D01*
X118861223Y-120705419D01*
X123147312Y-125224000D01*
X120450802Y-125224000D01*
X115609882Y-120383081D01*
X115651185Y-120349185D01*
X115730537Y-120252494D01*
X115789502Y-120142180D01*
X115825812Y-120022482D01*
X115838072Y-119898000D01*
X115838072Y-118398000D01*
X115825812Y-118273518D01*
X115789502Y-118153820D01*
X115730537Y-118043506D01*
X115651185Y-117946815D01*
X115554494Y-117867463D01*
X115444180Y-117808498D01*
X115324482Y-117772188D01*
X115200000Y-117759928D01*
X113400000Y-117759928D01*
X113275518Y-117772188D01*
X113155820Y-117808498D01*
X113045506Y-117867463D01*
X112948815Y-117946815D01*
X112869463Y-118043506D01*
X112810498Y-118153820D01*
X112774188Y-118273518D01*
X112761928Y-118398000D01*
X112761928Y-119898000D01*
X112774188Y-120022482D01*
X112810498Y-120142180D01*
X112869463Y-120252494D01*
X112948815Y-120349185D01*
X113045506Y-120428537D01*
X113155820Y-120487502D01*
X113275518Y-120523812D01*
X113400000Y-120536072D01*
X113645674Y-120536072D01*
X113665026Y-120572276D01*
X113675120Y-120584575D01*
X113759999Y-120688001D01*
X113789003Y-120711804D01*
X116960198Y-123883000D01*
X116831137Y-123883000D01*
X116621517Y-123924696D01*
X116424060Y-124006485D01*
X116246353Y-124125225D01*
X116095225Y-124276353D01*
X115976485Y-124454060D01*
X115894696Y-124651517D01*
X115853000Y-124861137D01*
X115853000Y-125074863D01*
X115894696Y-125284483D01*
X115976485Y-125481940D01*
X116095225Y-125659647D01*
X116246353Y-125810775D01*
X116424060Y-125929515D01*
X116621517Y-126011304D01*
X116831137Y-126053000D01*
X117044863Y-126053000D01*
X117254483Y-126011304D01*
X117451940Y-125929515D01*
X117629647Y-125810775D01*
X117780775Y-125659647D01*
X117899515Y-125481940D01*
X117981304Y-125284483D01*
X118023000Y-125074863D01*
X118023000Y-124945802D01*
X119417198Y-126340000D01*
X100990000Y-126340000D01*
X100990000Y-124861137D01*
X109053000Y-124861137D01*
X109053000Y-125074863D01*
X109094696Y-125284483D01*
X109176485Y-125481940D01*
X109295225Y-125659647D01*
X109446353Y-125810775D01*
X109624060Y-125929515D01*
X109821517Y-126011304D01*
X110031137Y-126053000D01*
X110244863Y-126053000D01*
X110454483Y-126011304D01*
X110651940Y-125929515D01*
X110829647Y-125810775D01*
X110980775Y-125659647D01*
X111099515Y-125481940D01*
X111181304Y-125284483D01*
X111223000Y-125074863D01*
X111223000Y-124861137D01*
X111181304Y-124651517D01*
X111099515Y-124454060D01*
X110980775Y-124276353D01*
X110829647Y-124125225D01*
X110651940Y-124006485D01*
X110454483Y-123924696D01*
X110244863Y-123883000D01*
X110031137Y-123883000D01*
X109821517Y-123924696D01*
X109624060Y-124006485D01*
X109446353Y-124125225D01*
X109295225Y-124276353D01*
X109176485Y-124454060D01*
X109094696Y-124651517D01*
X109053000Y-124861137D01*
X100990000Y-124861137D01*
X100990000Y-115724023D01*
X102313000Y-115724023D01*
X102313000Y-116183977D01*
X102402733Y-116635094D01*
X102578750Y-117060037D01*
X102834287Y-117442476D01*
X103159524Y-117767713D01*
X103541963Y-118023250D01*
X103966906Y-118199267D01*
X104418023Y-118289000D01*
X104877977Y-118289000D01*
X105329094Y-118199267D01*
X105754037Y-118023250D01*
X106136476Y-117767713D01*
X106461713Y-117442476D01*
X106717250Y-117060037D01*
X106893267Y-116635094D01*
X106983000Y-116183977D01*
X106983000Y-115724023D01*
X106893267Y-115272906D01*
X106717250Y-114847963D01*
X106461713Y-114465524D01*
X106136476Y-114140287D01*
X105754037Y-113884750D01*
X105329094Y-113708733D01*
X104877977Y-113619000D01*
X104418023Y-113619000D01*
X103966906Y-113708733D01*
X103541963Y-113884750D01*
X103159524Y-114140287D01*
X102834287Y-114465524D01*
X102578750Y-114847963D01*
X102402733Y-115272906D01*
X102313000Y-115724023D01*
X100990000Y-115724023D01*
X100990000Y-110384023D01*
X102313000Y-110384023D01*
X102313000Y-110843977D01*
X102402733Y-111295094D01*
X102578750Y-111720037D01*
X102834287Y-112102476D01*
X103159524Y-112427713D01*
X103541963Y-112683250D01*
X103966906Y-112859267D01*
X104418023Y-112949000D01*
X104877977Y-112949000D01*
X105329094Y-112859267D01*
X105754037Y-112683250D01*
X106136476Y-112427713D01*
X106262189Y-112302000D01*
X112761928Y-112302000D01*
X112761928Y-113802000D01*
X112774188Y-113926482D01*
X112810498Y-114046180D01*
X112869463Y-114156494D01*
X112948815Y-114253185D01*
X113005859Y-114300000D01*
X112948815Y-114346815D01*
X112869463Y-114443506D01*
X112810498Y-114553820D01*
X112774188Y-114673518D01*
X112761928Y-114798000D01*
X112761928Y-116298000D01*
X112774188Y-116422482D01*
X112810498Y-116542180D01*
X112869463Y-116652494D01*
X112948815Y-116749185D01*
X113045506Y-116828537D01*
X113155820Y-116887502D01*
X113275518Y-116923812D01*
X113400000Y-116936072D01*
X115200000Y-116936072D01*
X115324482Y-116923812D01*
X115444180Y-116887502D01*
X115554494Y-116828537D01*
X115651185Y-116749185D01*
X115730537Y-116652494D01*
X115789502Y-116542180D01*
X115825812Y-116422482D01*
X115838072Y-116298000D01*
X115838072Y-114798000D01*
X115825812Y-114673518D01*
X115789502Y-114553820D01*
X115730537Y-114443506D01*
X115651185Y-114346815D01*
X115594141Y-114300000D01*
X115651185Y-114253185D01*
X115730537Y-114156494D01*
X115789502Y-114046180D01*
X115825812Y-113926482D01*
X115838072Y-113802000D01*
X115838072Y-112302000D01*
X117841928Y-112302000D01*
X117841928Y-113802000D01*
X117854188Y-113926482D01*
X117890498Y-114046180D01*
X117949463Y-114156494D01*
X118028815Y-114253185D01*
X118085859Y-114300000D01*
X118028815Y-114346815D01*
X117949463Y-114443506D01*
X117890498Y-114553820D01*
X117854188Y-114673518D01*
X117841928Y-114798000D01*
X117841928Y-116298000D01*
X117854188Y-116422482D01*
X117890498Y-116542180D01*
X117949463Y-116652494D01*
X118028815Y-116749185D01*
X118125506Y-116828537D01*
X118235820Y-116887502D01*
X118355518Y-116923812D01*
X118480000Y-116936072D01*
X120280000Y-116936072D01*
X120404482Y-116923812D01*
X120524180Y-116887502D01*
X120634494Y-116828537D01*
X120731185Y-116749185D01*
X120810537Y-116652494D01*
X120869502Y-116542180D01*
X120905812Y-116422482D01*
X120918072Y-116298000D01*
X120918072Y-114798000D01*
X120905812Y-114673518D01*
X120869502Y-114553820D01*
X120810537Y-114443506D01*
X120731185Y-114346815D01*
X120674141Y-114300000D01*
X120731185Y-114253185D01*
X120810537Y-114156494D01*
X120869502Y-114046180D01*
X120905812Y-113926482D01*
X120918072Y-113802000D01*
X120918072Y-112302000D01*
X122921928Y-112302000D01*
X122921928Y-113802000D01*
X122934188Y-113926482D01*
X122970498Y-114046180D01*
X123029463Y-114156494D01*
X123108815Y-114253185D01*
X123165859Y-114300000D01*
X123108815Y-114346815D01*
X123029463Y-114443506D01*
X122970498Y-114553820D01*
X122934188Y-114673518D01*
X122921928Y-114798000D01*
X122921928Y-116298000D01*
X122934188Y-116422482D01*
X122970498Y-116542180D01*
X123029463Y-116652494D01*
X123108815Y-116749185D01*
X123205506Y-116828537D01*
X123315820Y-116887502D01*
X123435518Y-116923812D01*
X123560000Y-116936072D01*
X125360000Y-116936072D01*
X125484482Y-116923812D01*
X125604180Y-116887502D01*
X125714494Y-116828537D01*
X125811185Y-116749185D01*
X125890537Y-116652494D01*
X125949502Y-116542180D01*
X125985812Y-116422482D01*
X125998072Y-116298000D01*
X125998072Y-114798000D01*
X125985812Y-114673518D01*
X125949502Y-114553820D01*
X125890537Y-114443506D01*
X125811185Y-114346815D01*
X125754141Y-114300000D01*
X125811185Y-114253185D01*
X125890537Y-114156494D01*
X125949502Y-114046180D01*
X125985812Y-113926482D01*
X125998072Y-113802000D01*
X125998072Y-112302000D01*
X128001928Y-112302000D01*
X128001928Y-113802000D01*
X128014188Y-113926482D01*
X128050498Y-114046180D01*
X128109463Y-114156494D01*
X128188815Y-114253185D01*
X128245859Y-114300000D01*
X128188815Y-114346815D01*
X128109463Y-114443506D01*
X128050498Y-114553820D01*
X128014188Y-114673518D01*
X128001928Y-114798000D01*
X128001928Y-116298000D01*
X128014188Y-116422482D01*
X128050498Y-116542180D01*
X128109463Y-116652494D01*
X128188815Y-116749185D01*
X128285506Y-116828537D01*
X128395820Y-116887502D01*
X128515518Y-116923812D01*
X128640000Y-116936072D01*
X130440000Y-116936072D01*
X130564482Y-116923812D01*
X130684180Y-116887502D01*
X130794494Y-116828537D01*
X130891185Y-116749185D01*
X130970537Y-116652494D01*
X131029502Y-116542180D01*
X131065812Y-116422482D01*
X131078072Y-116298000D01*
X131078072Y-114798000D01*
X131065812Y-114673518D01*
X131029502Y-114553820D01*
X130970537Y-114443506D01*
X130891185Y-114346815D01*
X130834141Y-114300000D01*
X130891185Y-114253185D01*
X130970537Y-114156494D01*
X131029502Y-114046180D01*
X131065812Y-113926482D01*
X131078072Y-113802000D01*
X131078072Y-112302000D01*
X133081928Y-112302000D01*
X133081928Y-113802000D01*
X133094188Y-113926482D01*
X133130498Y-114046180D01*
X133189463Y-114156494D01*
X133268815Y-114253185D01*
X133325859Y-114300000D01*
X133268815Y-114346815D01*
X133189463Y-114443506D01*
X133130498Y-114553820D01*
X133094188Y-114673518D01*
X133081928Y-114798000D01*
X133081928Y-116298000D01*
X133094188Y-116422482D01*
X133130498Y-116542180D01*
X133189463Y-116652494D01*
X133268815Y-116749185D01*
X133365506Y-116828537D01*
X133475820Y-116887502D01*
X133595518Y-116923812D01*
X133720000Y-116936072D01*
X135520000Y-116936072D01*
X135644482Y-116923812D01*
X135764180Y-116887502D01*
X135874494Y-116828537D01*
X135971185Y-116749185D01*
X136050537Y-116652494D01*
X136109502Y-116542180D01*
X136145812Y-116422482D01*
X136158072Y-116298000D01*
X136158072Y-114798000D01*
X136145812Y-114673518D01*
X136109502Y-114553820D01*
X136050537Y-114443506D01*
X135971185Y-114346815D01*
X135914141Y-114300000D01*
X135971185Y-114253185D01*
X136050537Y-114156494D01*
X136109502Y-114046180D01*
X136145812Y-113926482D01*
X136158072Y-113802000D01*
X136158072Y-112302000D01*
X138161928Y-112302000D01*
X138161928Y-113802000D01*
X138174188Y-113926482D01*
X138210498Y-114046180D01*
X138269463Y-114156494D01*
X138348815Y-114253185D01*
X138405859Y-114300000D01*
X138348815Y-114346815D01*
X138269463Y-114443506D01*
X138210498Y-114553820D01*
X138174188Y-114673518D01*
X138161928Y-114798000D01*
X138161928Y-116298000D01*
X138174188Y-116422482D01*
X138210498Y-116542180D01*
X138269463Y-116652494D01*
X138348815Y-116749185D01*
X138445506Y-116828537D01*
X138555820Y-116887502D01*
X138675518Y-116923812D01*
X138800000Y-116936072D01*
X140600000Y-116936072D01*
X140724482Y-116923812D01*
X140844180Y-116887502D01*
X140954494Y-116828537D01*
X141051185Y-116749185D01*
X141130537Y-116652494D01*
X141189502Y-116542180D01*
X141225812Y-116422482D01*
X141238072Y-116298000D01*
X141238072Y-114798000D01*
X141225812Y-114673518D01*
X141189502Y-114553820D01*
X141130537Y-114443506D01*
X141051185Y-114346815D01*
X140994141Y-114300000D01*
X141051185Y-114253185D01*
X141130537Y-114156494D01*
X141189502Y-114046180D01*
X141225812Y-113926482D01*
X141238072Y-113802000D01*
X141238072Y-112302000D01*
X143241928Y-112302000D01*
X143241928Y-113802000D01*
X143254188Y-113926482D01*
X143290498Y-114046180D01*
X143349463Y-114156494D01*
X143428815Y-114253185D01*
X143485859Y-114300000D01*
X143428815Y-114346815D01*
X143349463Y-114443506D01*
X143290498Y-114553820D01*
X143254188Y-114673518D01*
X143241928Y-114798000D01*
X143241928Y-116298000D01*
X143254188Y-116422482D01*
X143290498Y-116542180D01*
X143349463Y-116652494D01*
X143428815Y-116749185D01*
X143525506Y-116828537D01*
X143635820Y-116887502D01*
X143755518Y-116923812D01*
X143880000Y-116936072D01*
X145680000Y-116936072D01*
X145804482Y-116923812D01*
X145924180Y-116887502D01*
X146034494Y-116828537D01*
X146131185Y-116749185D01*
X146210537Y-116652494D01*
X146269502Y-116542180D01*
X146305812Y-116422482D01*
X146318072Y-116298000D01*
X146318072Y-114798000D01*
X146305812Y-114673518D01*
X146269502Y-114553820D01*
X146210537Y-114443506D01*
X146131185Y-114346815D01*
X146074141Y-114300000D01*
X146131185Y-114253185D01*
X146210537Y-114156494D01*
X146269502Y-114046180D01*
X146305812Y-113926482D01*
X146318072Y-113802000D01*
X146318072Y-112302000D01*
X148321928Y-112302000D01*
X148321928Y-113802000D01*
X148334188Y-113926482D01*
X148370498Y-114046180D01*
X148429463Y-114156494D01*
X148508815Y-114253185D01*
X148565859Y-114300000D01*
X148508815Y-114346815D01*
X148429463Y-114443506D01*
X148370498Y-114553820D01*
X148334188Y-114673518D01*
X148321928Y-114798000D01*
X148321928Y-116298000D01*
X148334188Y-116422482D01*
X148370498Y-116542180D01*
X148429463Y-116652494D01*
X148508815Y-116749185D01*
X148605506Y-116828537D01*
X148715820Y-116887502D01*
X148835518Y-116923812D01*
X148960000Y-116936072D01*
X150760000Y-116936072D01*
X150884482Y-116923812D01*
X151004180Y-116887502D01*
X151114494Y-116828537D01*
X151211185Y-116749185D01*
X151290537Y-116652494D01*
X151349502Y-116542180D01*
X151385812Y-116422482D01*
X151398072Y-116298000D01*
X151398072Y-114798000D01*
X151385812Y-114673518D01*
X151349502Y-114553820D01*
X151290537Y-114443506D01*
X151211185Y-114346815D01*
X151154141Y-114300000D01*
X151211185Y-114253185D01*
X151290537Y-114156494D01*
X151349502Y-114046180D01*
X151385812Y-113926482D01*
X151398072Y-113802000D01*
X151398072Y-112302000D01*
X151385812Y-112177518D01*
X151349502Y-112057820D01*
X151290537Y-111947506D01*
X151211185Y-111850815D01*
X151114494Y-111771463D01*
X151004180Y-111712498D01*
X150884482Y-111676188D01*
X150760000Y-111663928D01*
X148960000Y-111663928D01*
X148835518Y-111676188D01*
X148715820Y-111712498D01*
X148605506Y-111771463D01*
X148508815Y-111850815D01*
X148429463Y-111947506D01*
X148370498Y-112057820D01*
X148334188Y-112177518D01*
X148321928Y-112302000D01*
X146318072Y-112302000D01*
X146305812Y-112177518D01*
X146269502Y-112057820D01*
X146210537Y-111947506D01*
X146131185Y-111850815D01*
X146034494Y-111771463D01*
X145924180Y-111712498D01*
X145804482Y-111676188D01*
X145680000Y-111663928D01*
X143880000Y-111663928D01*
X143755518Y-111676188D01*
X143635820Y-111712498D01*
X143525506Y-111771463D01*
X143428815Y-111850815D01*
X143349463Y-111947506D01*
X143290498Y-112057820D01*
X143254188Y-112177518D01*
X143241928Y-112302000D01*
X141238072Y-112302000D01*
X141225812Y-112177518D01*
X141189502Y-112057820D01*
X141130537Y-111947506D01*
X141051185Y-111850815D01*
X140954494Y-111771463D01*
X140844180Y-111712498D01*
X140724482Y-111676188D01*
X140600000Y-111663928D01*
X138800000Y-111663928D01*
X138675518Y-111676188D01*
X138555820Y-111712498D01*
X138445506Y-111771463D01*
X138348815Y-111850815D01*
X138269463Y-111947506D01*
X138210498Y-112057820D01*
X138174188Y-112177518D01*
X138161928Y-112302000D01*
X136158072Y-112302000D01*
X136145812Y-112177518D01*
X136109502Y-112057820D01*
X136050537Y-111947506D01*
X135971185Y-111850815D01*
X135874494Y-111771463D01*
X135764180Y-111712498D01*
X135644482Y-111676188D01*
X135520000Y-111663928D01*
X133720000Y-111663928D01*
X133595518Y-111676188D01*
X133475820Y-111712498D01*
X133365506Y-111771463D01*
X133268815Y-111850815D01*
X133189463Y-111947506D01*
X133130498Y-112057820D01*
X133094188Y-112177518D01*
X133081928Y-112302000D01*
X131078072Y-112302000D01*
X131065812Y-112177518D01*
X131029502Y-112057820D01*
X130970537Y-111947506D01*
X130891185Y-111850815D01*
X130794494Y-111771463D01*
X130684180Y-111712498D01*
X130564482Y-111676188D01*
X130440000Y-111663928D01*
X128640000Y-111663928D01*
X128515518Y-111676188D01*
X128395820Y-111712498D01*
X128285506Y-111771463D01*
X128188815Y-111850815D01*
X128109463Y-111947506D01*
X128050498Y-112057820D01*
X128014188Y-112177518D01*
X128001928Y-112302000D01*
X125998072Y-112302000D01*
X125985812Y-112177518D01*
X125949502Y-112057820D01*
X125890537Y-111947506D01*
X125811185Y-111850815D01*
X125714494Y-111771463D01*
X125604180Y-111712498D01*
X125484482Y-111676188D01*
X125360000Y-111663928D01*
X123560000Y-111663928D01*
X123435518Y-111676188D01*
X123315820Y-111712498D01*
X123205506Y-111771463D01*
X123108815Y-111850815D01*
X123029463Y-111947506D01*
X122970498Y-112057820D01*
X122934188Y-112177518D01*
X122921928Y-112302000D01*
X120918072Y-112302000D01*
X120905812Y-112177518D01*
X120869502Y-112057820D01*
X120810537Y-111947506D01*
X120731185Y-111850815D01*
X120634494Y-111771463D01*
X120524180Y-111712498D01*
X120404482Y-111676188D01*
X120280000Y-111663928D01*
X118480000Y-111663928D01*
X118355518Y-111676188D01*
X118235820Y-111712498D01*
X118125506Y-111771463D01*
X118028815Y-111850815D01*
X117949463Y-111947506D01*
X117890498Y-112057820D01*
X117854188Y-112177518D01*
X117841928Y-112302000D01*
X115838072Y-112302000D01*
X115825812Y-112177518D01*
X115789502Y-112057820D01*
X115730537Y-111947506D01*
X115651185Y-111850815D01*
X115554494Y-111771463D01*
X115444180Y-111712498D01*
X115324482Y-111676188D01*
X115200000Y-111663928D01*
X113400000Y-111663928D01*
X113275518Y-111676188D01*
X113155820Y-111712498D01*
X113045506Y-111771463D01*
X112948815Y-111850815D01*
X112869463Y-111947506D01*
X112810498Y-112057820D01*
X112774188Y-112177518D01*
X112761928Y-112302000D01*
X106262189Y-112302000D01*
X106461713Y-112102476D01*
X106717250Y-111720037D01*
X106893267Y-111295094D01*
X106983000Y-110843977D01*
X106983000Y-110384023D01*
X106893267Y-109932906D01*
X106717250Y-109507963D01*
X106626444Y-109372061D01*
X108693000Y-109372061D01*
X108693000Y-109575939D01*
X108732774Y-109775898D01*
X108810795Y-109964256D01*
X108924063Y-110133774D01*
X109068226Y-110277937D01*
X109237744Y-110391205D01*
X109426102Y-110469226D01*
X109626061Y-110509000D01*
X109829939Y-110509000D01*
X110029898Y-110469226D01*
X110218256Y-110391205D01*
X110387774Y-110277937D01*
X110453711Y-110212000D01*
X112762913Y-110212000D01*
X112774188Y-110326482D01*
X112810498Y-110446180D01*
X112869463Y-110556494D01*
X112948815Y-110653185D01*
X113045506Y-110732537D01*
X113155820Y-110791502D01*
X113275518Y-110827812D01*
X113400000Y-110840072D01*
X115200000Y-110840072D01*
X115324482Y-110827812D01*
X115444180Y-110791502D01*
X115554494Y-110732537D01*
X115651185Y-110653185D01*
X115730537Y-110556494D01*
X115789502Y-110446180D01*
X115825812Y-110326482D01*
X115837087Y-110212000D01*
X117842913Y-110212000D01*
X117854188Y-110326482D01*
X117890498Y-110446180D01*
X117949463Y-110556494D01*
X118028815Y-110653185D01*
X118125506Y-110732537D01*
X118235820Y-110791502D01*
X118355518Y-110827812D01*
X118480000Y-110840072D01*
X120280000Y-110840072D01*
X120404482Y-110827812D01*
X120524180Y-110791502D01*
X120634494Y-110732537D01*
X120731185Y-110653185D01*
X120810537Y-110556494D01*
X120869502Y-110446180D01*
X120905812Y-110326482D01*
X120917087Y-110212000D01*
X122922913Y-110212000D01*
X122934188Y-110326482D01*
X122970498Y-110446180D01*
X123029463Y-110556494D01*
X123108815Y-110653185D01*
X123205506Y-110732537D01*
X123315820Y-110791502D01*
X123435518Y-110827812D01*
X123560000Y-110840072D01*
X125360000Y-110840072D01*
X125484482Y-110827812D01*
X125604180Y-110791502D01*
X125714494Y-110732537D01*
X125811185Y-110653185D01*
X125890537Y-110556494D01*
X125949502Y-110446180D01*
X125985812Y-110326482D01*
X125997087Y-110212000D01*
X128002913Y-110212000D01*
X128014188Y-110326482D01*
X128050498Y-110446180D01*
X128109463Y-110556494D01*
X128188815Y-110653185D01*
X128285506Y-110732537D01*
X128395820Y-110791502D01*
X128515518Y-110827812D01*
X128640000Y-110840072D01*
X130440000Y-110840072D01*
X130564482Y-110827812D01*
X130684180Y-110791502D01*
X130794494Y-110732537D01*
X130891185Y-110653185D01*
X130970537Y-110556494D01*
X131029502Y-110446180D01*
X131065812Y-110326482D01*
X131077087Y-110212000D01*
X133082913Y-110212000D01*
X133094188Y-110326482D01*
X133130498Y-110446180D01*
X133189463Y-110556494D01*
X133268815Y-110653185D01*
X133365506Y-110732537D01*
X133475820Y-110791502D01*
X133595518Y-110827812D01*
X133720000Y-110840072D01*
X135520000Y-110840072D01*
X135644482Y-110827812D01*
X135764180Y-110791502D01*
X135874494Y-110732537D01*
X135971185Y-110653185D01*
X136050537Y-110556494D01*
X136109502Y-110446180D01*
X136145812Y-110326482D01*
X136157087Y-110212000D01*
X138162913Y-110212000D01*
X138174188Y-110326482D01*
X138210498Y-110446180D01*
X138269463Y-110556494D01*
X138348815Y-110653185D01*
X138445506Y-110732537D01*
X138555820Y-110791502D01*
X138675518Y-110827812D01*
X138800000Y-110840072D01*
X140600000Y-110840072D01*
X140724482Y-110827812D01*
X140844180Y-110791502D01*
X140954494Y-110732537D01*
X141051185Y-110653185D01*
X141130537Y-110556494D01*
X141189502Y-110446180D01*
X141225812Y-110326482D01*
X141237087Y-110212000D01*
X143242913Y-110212000D01*
X143254188Y-110326482D01*
X143290498Y-110446180D01*
X143349463Y-110556494D01*
X143428815Y-110653185D01*
X143525506Y-110732537D01*
X143635820Y-110791502D01*
X143755518Y-110827812D01*
X143880000Y-110840072D01*
X145680000Y-110840072D01*
X145804482Y-110827812D01*
X145924180Y-110791502D01*
X146034494Y-110732537D01*
X146131185Y-110653185D01*
X146210537Y-110556494D01*
X146269502Y-110446180D01*
X146305812Y-110326482D01*
X146317087Y-110212000D01*
X148322913Y-110212000D01*
X148334188Y-110326482D01*
X148370498Y-110446180D01*
X148429463Y-110556494D01*
X148508815Y-110653185D01*
X148605506Y-110732537D01*
X148715820Y-110791502D01*
X148835518Y-110827812D01*
X148960000Y-110840072D01*
X150760000Y-110840072D01*
X150884482Y-110827812D01*
X151004180Y-110791502D01*
X151114494Y-110732537D01*
X151211185Y-110653185D01*
X151290537Y-110556494D01*
X151349502Y-110446180D01*
X151385812Y-110326482D01*
X151397087Y-110212000D01*
X151674289Y-110212000D01*
X151740226Y-110277937D01*
X151909744Y-110391205D01*
X152098102Y-110469226D01*
X152298061Y-110509000D01*
X152501939Y-110509000D01*
X152701898Y-110469226D01*
X152890256Y-110391205D01*
X153059774Y-110277937D01*
X153203937Y-110133774D01*
X153317205Y-109964256D01*
X153395226Y-109775898D01*
X153435000Y-109575939D01*
X153435000Y-109372061D01*
X153395226Y-109172102D01*
X153317205Y-108983744D01*
X153203937Y-108814226D01*
X153059774Y-108670063D01*
X152890256Y-108556795D01*
X152701898Y-108478774D01*
X152501939Y-108439000D01*
X152298061Y-108439000D01*
X152098102Y-108478774D01*
X151909744Y-108556795D01*
X151740226Y-108670063D01*
X151718289Y-108692000D01*
X151397087Y-108692000D01*
X151385812Y-108577518D01*
X151349502Y-108457820D01*
X151290537Y-108347506D01*
X151211185Y-108250815D01*
X151114494Y-108171463D01*
X151004180Y-108112498D01*
X150884482Y-108076188D01*
X150760000Y-108063928D01*
X148960000Y-108063928D01*
X148835518Y-108076188D01*
X148715820Y-108112498D01*
X148605506Y-108171463D01*
X148508815Y-108250815D01*
X148429463Y-108347506D01*
X148370498Y-108457820D01*
X148334188Y-108577518D01*
X148322913Y-108692000D01*
X146317087Y-108692000D01*
X146305812Y-108577518D01*
X146269502Y-108457820D01*
X146210537Y-108347506D01*
X146131185Y-108250815D01*
X146034494Y-108171463D01*
X145924180Y-108112498D01*
X145804482Y-108076188D01*
X145680000Y-108063928D01*
X143880000Y-108063928D01*
X143755518Y-108076188D01*
X143635820Y-108112498D01*
X143525506Y-108171463D01*
X143428815Y-108250815D01*
X143349463Y-108347506D01*
X143290498Y-108457820D01*
X143254188Y-108577518D01*
X143242913Y-108692000D01*
X141237087Y-108692000D01*
X141225812Y-108577518D01*
X141189502Y-108457820D01*
X141130537Y-108347506D01*
X141051185Y-108250815D01*
X140954494Y-108171463D01*
X140844180Y-108112498D01*
X140724482Y-108076188D01*
X140600000Y-108063928D01*
X138800000Y-108063928D01*
X138675518Y-108076188D01*
X138555820Y-108112498D01*
X138445506Y-108171463D01*
X138348815Y-108250815D01*
X138269463Y-108347506D01*
X138210498Y-108457820D01*
X138174188Y-108577518D01*
X138162913Y-108692000D01*
X136157087Y-108692000D01*
X136145812Y-108577518D01*
X136109502Y-108457820D01*
X136050537Y-108347506D01*
X135971185Y-108250815D01*
X135874494Y-108171463D01*
X135764180Y-108112498D01*
X135644482Y-108076188D01*
X135520000Y-108063928D01*
X133720000Y-108063928D01*
X133595518Y-108076188D01*
X133475820Y-108112498D01*
X133365506Y-108171463D01*
X133268815Y-108250815D01*
X133189463Y-108347506D01*
X133130498Y-108457820D01*
X133094188Y-108577518D01*
X133082913Y-108692000D01*
X131077087Y-108692000D01*
X131065812Y-108577518D01*
X131029502Y-108457820D01*
X130970537Y-108347506D01*
X130891185Y-108250815D01*
X130794494Y-108171463D01*
X130684180Y-108112498D01*
X130564482Y-108076188D01*
X130440000Y-108063928D01*
X128640000Y-108063928D01*
X128515518Y-108076188D01*
X128395820Y-108112498D01*
X128285506Y-108171463D01*
X128188815Y-108250815D01*
X128109463Y-108347506D01*
X128050498Y-108457820D01*
X128014188Y-108577518D01*
X128002913Y-108692000D01*
X125997087Y-108692000D01*
X125985812Y-108577518D01*
X125949502Y-108457820D01*
X125890537Y-108347506D01*
X125811185Y-108250815D01*
X125714494Y-108171463D01*
X125604180Y-108112498D01*
X125484482Y-108076188D01*
X125360000Y-108063928D01*
X123560000Y-108063928D01*
X123435518Y-108076188D01*
X123315820Y-108112498D01*
X123205506Y-108171463D01*
X123108815Y-108250815D01*
X123029463Y-108347506D01*
X122970498Y-108457820D01*
X122934188Y-108577518D01*
X122922913Y-108692000D01*
X120917087Y-108692000D01*
X120905812Y-108577518D01*
X120869502Y-108457820D01*
X120810537Y-108347506D01*
X120731185Y-108250815D01*
X120634494Y-108171463D01*
X120524180Y-108112498D01*
X120404482Y-108076188D01*
X120280000Y-108063928D01*
X118480000Y-108063928D01*
X118355518Y-108076188D01*
X118235820Y-108112498D01*
X118125506Y-108171463D01*
X118028815Y-108250815D01*
X117949463Y-108347506D01*
X117890498Y-108457820D01*
X117854188Y-108577518D01*
X117842913Y-108692000D01*
X115837087Y-108692000D01*
X115825812Y-108577518D01*
X115789502Y-108457820D01*
X115730537Y-108347506D01*
X115651185Y-108250815D01*
X115554494Y-108171463D01*
X115444180Y-108112498D01*
X115324482Y-108076188D01*
X115200000Y-108063928D01*
X113400000Y-108063928D01*
X113275518Y-108076188D01*
X113155820Y-108112498D01*
X113045506Y-108171463D01*
X112948815Y-108250815D01*
X112869463Y-108347506D01*
X112810498Y-108457820D01*
X112774188Y-108577518D01*
X112762913Y-108692000D01*
X110409711Y-108692000D01*
X110387774Y-108670063D01*
X110218256Y-108556795D01*
X110029898Y-108478774D01*
X109829939Y-108439000D01*
X109626061Y-108439000D01*
X109426102Y-108478774D01*
X109237744Y-108556795D01*
X109068226Y-108670063D01*
X108924063Y-108814226D01*
X108810795Y-108983744D01*
X108732774Y-109172102D01*
X108693000Y-109372061D01*
X106626444Y-109372061D01*
X106461713Y-109125524D01*
X106136476Y-108800287D01*
X105754037Y-108544750D01*
X105329094Y-108368733D01*
X104877977Y-108279000D01*
X104418023Y-108279000D01*
X103966906Y-108368733D01*
X103541963Y-108544750D01*
X103159524Y-108800287D01*
X102834287Y-109125524D01*
X102578750Y-109507963D01*
X102402733Y-109932906D01*
X102313000Y-110384023D01*
X100990000Y-110384023D01*
X100990000Y-105562061D01*
X130791000Y-105562061D01*
X130791000Y-105765939D01*
X130830774Y-105965898D01*
X130908795Y-106154256D01*
X131022063Y-106323774D01*
X131166226Y-106467937D01*
X131335744Y-106581205D01*
X131524102Y-106659226D01*
X131724061Y-106699000D01*
X131927939Y-106699000D01*
X132094039Y-106665961D01*
X132061000Y-106832061D01*
X132061000Y-107035939D01*
X132100774Y-107235898D01*
X132178795Y-107424256D01*
X132292063Y-107593774D01*
X132436226Y-107737937D01*
X132605744Y-107851205D01*
X132794102Y-107929226D01*
X132994061Y-107969000D01*
X133197939Y-107969000D01*
X133397898Y-107929226D01*
X133586256Y-107851205D01*
X133755774Y-107737937D01*
X133799711Y-107694000D01*
X136456289Y-107694000D01*
X136500226Y-107737937D01*
X136669744Y-107851205D01*
X136858102Y-107929226D01*
X137058061Y-107969000D01*
X137261939Y-107969000D01*
X137461898Y-107929226D01*
X137650256Y-107851205D01*
X137819774Y-107737937D01*
X137963937Y-107593774D01*
X138077205Y-107424256D01*
X138155226Y-107235898D01*
X138195000Y-107035939D01*
X138195000Y-106832061D01*
X138155226Y-106632102D01*
X138111335Y-106526141D01*
X138193744Y-106581205D01*
X138382102Y-106659226D01*
X138582061Y-106699000D01*
X138785939Y-106699000D01*
X138985898Y-106659226D01*
X139174256Y-106581205D01*
X139343774Y-106467937D01*
X139487937Y-106323774D01*
X139601205Y-106154256D01*
X139679226Y-105965898D01*
X139719000Y-105765939D01*
X139719000Y-105562061D01*
X139679226Y-105362102D01*
X139646273Y-105282545D01*
X140769061Y-105282545D01*
X140866032Y-105547968D01*
X141157353Y-105689856D01*
X141470757Y-105772185D01*
X141794200Y-105791789D01*
X142115253Y-105747916D01*
X142421578Y-105642251D01*
X142597968Y-105547968D01*
X142694939Y-105282545D01*
X141732000Y-104319605D01*
X140769061Y-105282545D01*
X139646273Y-105282545D01*
X139601205Y-105173744D01*
X139487937Y-105004226D01*
X139343774Y-104860063D01*
X139174256Y-104746795D01*
X138985898Y-104668774D01*
X138785939Y-104629000D01*
X138582061Y-104629000D01*
X138382102Y-104668774D01*
X138193744Y-104746795D01*
X138024226Y-104860063D01*
X137980289Y-104904000D01*
X132529711Y-104904000D01*
X132485774Y-104860063D01*
X132316256Y-104746795D01*
X132127898Y-104668774D01*
X131927939Y-104629000D01*
X131724061Y-104629000D01*
X131524102Y-104668774D01*
X131335744Y-104746795D01*
X131166226Y-104860063D01*
X131022063Y-105004226D01*
X130908795Y-105173744D01*
X130830774Y-105362102D01*
X130791000Y-105562061D01*
X100990000Y-105562061D01*
X100990000Y-104202200D01*
X140080211Y-104202200D01*
X140124084Y-104523253D01*
X140229749Y-104829578D01*
X140324032Y-105005968D01*
X140589455Y-105102939D01*
X141552395Y-104140000D01*
X141911605Y-104140000D01*
X142874545Y-105102939D01*
X143139968Y-105005968D01*
X143281856Y-104714647D01*
X143364185Y-104401243D01*
X143383789Y-104077800D01*
X143370149Y-103977982D01*
X146437000Y-103977982D01*
X146437000Y-104302018D01*
X146500217Y-104619829D01*
X146624220Y-104919199D01*
X146804245Y-105188626D01*
X147033374Y-105417755D01*
X147302801Y-105597780D01*
X147602171Y-105721783D01*
X147919982Y-105785000D01*
X148244018Y-105785000D01*
X148561829Y-105721783D01*
X148861199Y-105597780D01*
X149130626Y-105417755D01*
X149359755Y-105188626D01*
X149539780Y-104919199D01*
X149663783Y-104619829D01*
X149727000Y-104302018D01*
X149727000Y-103977982D01*
X152787000Y-103977982D01*
X152787000Y-104302018D01*
X152850217Y-104619829D01*
X152974220Y-104919199D01*
X153154245Y-105188626D01*
X153383374Y-105417755D01*
X153652801Y-105597780D01*
X153952171Y-105721783D01*
X154269982Y-105785000D01*
X154594018Y-105785000D01*
X154911829Y-105721783D01*
X155211199Y-105597780D01*
X155480626Y-105417755D01*
X155709755Y-105188626D01*
X155889780Y-104919199D01*
X156013783Y-104619829D01*
X156077000Y-104302018D01*
X156077000Y-103977982D01*
X156013783Y-103660171D01*
X155889780Y-103360801D01*
X155709755Y-103091374D01*
X155480626Y-102862245D01*
X155211199Y-102682220D01*
X154911829Y-102558217D01*
X154594018Y-102495000D01*
X154269982Y-102495000D01*
X153952171Y-102558217D01*
X153652801Y-102682220D01*
X153383374Y-102862245D01*
X153154245Y-103091374D01*
X152974220Y-103360801D01*
X152850217Y-103660171D01*
X152787000Y-103977982D01*
X149727000Y-103977982D01*
X149663783Y-103660171D01*
X149539780Y-103360801D01*
X149359755Y-103091374D01*
X149130626Y-102862245D01*
X148861199Y-102682220D01*
X148561829Y-102558217D01*
X148244018Y-102495000D01*
X147919982Y-102495000D01*
X147602171Y-102558217D01*
X147302801Y-102682220D01*
X147033374Y-102862245D01*
X146804245Y-103091374D01*
X146624220Y-103360801D01*
X146500217Y-103660171D01*
X146437000Y-103977982D01*
X143370149Y-103977982D01*
X143339916Y-103756747D01*
X143234251Y-103450422D01*
X143139968Y-103274032D01*
X142874545Y-103177061D01*
X141911605Y-104140000D01*
X141552395Y-104140000D01*
X140589455Y-103177061D01*
X140324032Y-103274032D01*
X140182144Y-103565353D01*
X140099815Y-103878757D01*
X140080211Y-104202200D01*
X100990000Y-104202200D01*
X100990000Y-102997455D01*
X140769061Y-102997455D01*
X141732000Y-103960395D01*
X142694939Y-102997455D01*
X142597968Y-102732032D01*
X142306647Y-102590144D01*
X141993243Y-102507815D01*
X141669800Y-102488211D01*
X141348747Y-102532084D01*
X141042422Y-102637749D01*
X140866032Y-102732032D01*
X140769061Y-102997455D01*
X100990000Y-102997455D01*
X100990000Y-102260000D01*
X163170000Y-102260000D01*
X163170001Y-126340000D01*
X163170001Y-126340000D01*
G37*
X163170001Y-126340000D02*
X152356816Y-126340000D01*
X152379226Y-126285898D01*
X152419000Y-126085939D01*
X152419000Y-126003000D01*
X152501939Y-126003000D01*
X152701898Y-125963226D01*
X152890256Y-125885205D01*
X153059774Y-125771937D01*
X153203937Y-125627774D01*
X153317205Y-125458256D01*
X153395226Y-125269898D01*
X153435000Y-125069939D01*
X153435000Y-124866061D01*
X153395226Y-124666102D01*
X153317205Y-124477744D01*
X153203937Y-124308226D01*
X153160000Y-124264289D01*
X153160000Y-121575322D01*
X153163676Y-121537999D01*
X153160000Y-121500676D01*
X153160000Y-121500667D01*
X153149003Y-121389014D01*
X153105546Y-121245753D01*
X153034974Y-121113724D01*
X152967106Y-121031026D01*
X152963799Y-121026996D01*
X152963795Y-121026992D01*
X152940001Y-120997999D01*
X152911008Y-120974205D01*
X151706867Y-119770064D01*
X157207000Y-119770064D01*
X157207000Y-119973942D01*
X157246774Y-120173901D01*
X157324795Y-120362259D01*
X157438063Y-120531777D01*
X157582226Y-120675940D01*
X157751744Y-120789208D01*
X157940102Y-120867229D01*
X158140061Y-120907003D01*
X158343939Y-120907003D01*
X158543898Y-120867229D01*
X158732256Y-120789208D01*
X158901774Y-120675940D01*
X159045937Y-120531777D01*
X159159205Y-120362259D01*
X159237226Y-120173901D01*
X159274303Y-119987501D01*
X159478003Y-119783801D01*
X159507002Y-119760002D01*
X159537355Y-119723017D01*
X159601975Y-119644278D01*
X159672547Y-119512248D01*
X159694388Y-119440246D01*
X159716004Y-119368987D01*
X159727001Y-119257334D01*
X159727001Y-119257325D01*
X159730677Y-119220002D01*
X159727001Y-119182679D01*
X159727001Y-115532323D01*
X159730677Y-115495000D01*
X159727001Y-115457677D01*
X159727001Y-115457668D01*
X159716004Y-115346015D01*
X159672547Y-115202754D01*
X159601976Y-115070726D01*
X159601975Y-115070724D01*
X159530800Y-114983998D01*
X159507002Y-114955000D01*
X159478005Y-114931203D01*
X159423000Y-114876198D01*
X159423000Y-114814061D01*
X159383226Y-114614102D01*
X159305205Y-114425744D01*
X159191937Y-114256226D01*
X159047774Y-114112063D01*
X158878256Y-113998795D01*
X158689898Y-113920774D01*
X158489939Y-113881000D01*
X158286061Y-113881000D01*
X158086102Y-113920774D01*
X157897744Y-113998795D01*
X157728226Y-114112063D01*
X157584063Y-114256226D01*
X157470795Y-114425744D01*
X157392774Y-114614102D01*
X157353000Y-114814061D01*
X157353000Y-115017939D01*
X157392774Y-115217898D01*
X157470795Y-115406256D01*
X157584063Y-115575774D01*
X157728226Y-115719937D01*
X157897744Y-115833205D01*
X158086102Y-115911226D01*
X158207001Y-115935274D01*
X158207002Y-118837003D01*
X158140061Y-118837003D01*
X157940102Y-118876777D01*
X157751744Y-118954798D01*
X157582226Y-119068066D01*
X157438063Y-119212229D01*
X157324795Y-119381747D01*
X157246774Y-119570105D01*
X157207000Y-119770064D01*
X151706867Y-119770064D01*
X151398072Y-119461270D01*
X151398072Y-118398000D01*
X151385812Y-118273518D01*
X151349502Y-118153820D01*
X151290537Y-118043506D01*
X151211185Y-117946815D01*
X151114494Y-117867463D01*
X151004180Y-117808498D01*
X150884482Y-117772188D01*
X150760000Y-117759928D01*
X148960000Y-117759928D01*
X148835518Y-117772188D01*
X148715820Y-117808498D01*
X148605506Y-117867463D01*
X148508815Y-117946815D01*
X148429463Y-118043506D01*
X148370498Y-118153820D01*
X148334188Y-118273518D01*
X148321928Y-118398000D01*
X148321928Y-119898000D01*
X148334188Y-120022482D01*
X148370498Y-120142180D01*
X148429463Y-120252494D01*
X148508815Y-120349185D01*
X148605506Y-120428537D01*
X148715820Y-120487502D01*
X148835518Y-120523812D01*
X148960000Y-120536072D01*
X150323270Y-120536072D01*
X151640001Y-121852804D01*
X151640000Y-123783198D01*
X146493804Y-118637003D01*
X146470001Y-118607999D01*
X146354276Y-118513026D01*
X146318072Y-118493674D01*
X146318072Y-118398000D01*
X146305812Y-118273518D01*
X146269502Y-118153820D01*
X146210537Y-118043506D01*
X146131185Y-117946815D01*
X146034494Y-117867463D01*
X145924180Y-117808498D01*
X145804482Y-117772188D01*
X145680000Y-117759928D01*
X143880000Y-117759928D01*
X143755518Y-117772188D01*
X143635820Y-117808498D01*
X143525506Y-117867463D01*
X143428815Y-117946815D01*
X143349463Y-118043506D01*
X143290498Y-118153820D01*
X143254188Y-118273518D01*
X143241928Y-118398000D01*
X143241928Y-119898000D01*
X143254188Y-120022482D01*
X143290498Y-120142180D01*
X143291471Y-120144000D01*
X143045646Y-120144000D01*
X141404407Y-118625553D01*
X141390001Y-118607999D01*
X141349567Y-118574816D01*
X141338723Y-118564783D01*
X141320742Y-118551160D01*
X141274276Y-118513026D01*
X141261151Y-118506010D01*
X141249298Y-118497030D01*
X141238072Y-118491579D01*
X141238072Y-118398000D01*
X141225812Y-118273518D01*
X141189502Y-118153820D01*
X141130537Y-118043506D01*
X141051185Y-117946815D01*
X140954494Y-117867463D01*
X140844180Y-117808498D01*
X140724482Y-117772188D01*
X140600000Y-117759928D01*
X138800000Y-117759928D01*
X138675518Y-117772188D01*
X138555820Y-117808498D01*
X138445506Y-117867463D01*
X138348815Y-117946815D01*
X138269463Y-118043506D01*
X138210498Y-118153820D01*
X138174188Y-118273518D01*
X138161928Y-118398000D01*
X138161928Y-119898000D01*
X138174188Y-120022482D01*
X138210498Y-120142180D01*
X138269463Y-120252494D01*
X138348815Y-120349185D01*
X138445506Y-120428537D01*
X138555820Y-120487502D01*
X138675518Y-120523812D01*
X138800000Y-120536072D01*
X140600000Y-120536072D01*
X140724482Y-120523812D01*
X140844180Y-120487502D01*
X140954494Y-120428537D01*
X141039543Y-120358739D01*
X141631058Y-120906000D01*
X138602802Y-120906000D01*
X136333804Y-118637003D01*
X136310001Y-118607999D01*
X136194276Y-118513026D01*
X136158072Y-118493674D01*
X136158072Y-118398000D01*
X136145812Y-118273518D01*
X136109502Y-118153820D01*
X136050537Y-118043506D01*
X135971185Y-117946815D01*
X135874494Y-117867463D01*
X135764180Y-117808498D01*
X135644482Y-117772188D01*
X135520000Y-117759928D01*
X133720000Y-117759928D01*
X133595518Y-117772188D01*
X133475820Y-117808498D01*
X133365506Y-117867463D01*
X133268815Y-117946815D01*
X133189463Y-118043506D01*
X133130498Y-118153820D01*
X133094188Y-118273518D01*
X133081928Y-118398000D01*
X133081928Y-119898000D01*
X133094188Y-120022482D01*
X133130498Y-120142180D01*
X133189463Y-120252494D01*
X133268815Y-120349185D01*
X133365506Y-120428537D01*
X133475820Y-120487502D01*
X133595518Y-120523812D01*
X133720000Y-120536072D01*
X135520000Y-120536072D01*
X135644482Y-120523812D01*
X135764180Y-120487502D01*
X135874494Y-120428537D01*
X135930101Y-120382902D01*
X137469198Y-121922000D01*
X132416201Y-121922000D01*
X130936344Y-120294158D01*
X130970537Y-120252494D01*
X131029502Y-120142180D01*
X131065812Y-120022482D01*
X131078072Y-119898000D01*
X131078072Y-118398000D01*
X131065812Y-118273518D01*
X131029502Y-118153820D01*
X130970537Y-118043506D01*
X130891185Y-117946815D01*
X130794494Y-117867463D01*
X130684180Y-117808498D01*
X130564482Y-117772188D01*
X130440000Y-117759928D01*
X128640000Y-117759928D01*
X128515518Y-117772188D01*
X128395820Y-117808498D01*
X128285506Y-117867463D01*
X128188815Y-117946815D01*
X128109463Y-118043506D01*
X128050498Y-118153820D01*
X128014188Y-118273518D01*
X128001928Y-118398000D01*
X128001928Y-119898000D01*
X128014188Y-120022482D01*
X128050498Y-120142180D01*
X128109463Y-120252494D01*
X128188815Y-120349185D01*
X128285506Y-120428537D01*
X128395820Y-120487502D01*
X128515518Y-120523812D01*
X128640000Y-120536072D01*
X129102047Y-120536072D01*
X131285617Y-122938000D01*
X128599256Y-122938000D01*
X125956511Y-120119073D01*
X125985812Y-120022482D01*
X125998072Y-119898000D01*
X125998072Y-118398000D01*
X125985812Y-118273518D01*
X125949502Y-118153820D01*
X125890537Y-118043506D01*
X125811185Y-117946815D01*
X125714494Y-117867463D01*
X125604180Y-117808498D01*
X125484482Y-117772188D01*
X125360000Y-117759928D01*
X123560000Y-117759928D01*
X123435518Y-117772188D01*
X123315820Y-117808498D01*
X123205506Y-117867463D01*
X123108815Y-117946815D01*
X123029463Y-118043506D01*
X122970498Y-118153820D01*
X122934188Y-118273518D01*
X122921928Y-118398000D01*
X122921928Y-119898000D01*
X122934188Y-120022482D01*
X122970498Y-120142180D01*
X123029463Y-120252494D01*
X123108815Y-120349185D01*
X123205506Y-120428537D01*
X123315820Y-120487502D01*
X123435518Y-120523812D01*
X123560000Y-120536072D01*
X124263937Y-120536072D01*
X127698419Y-124199520D01*
X127705379Y-124208001D01*
X124278620Y-124208000D01*
X120667739Y-120401254D01*
X120731185Y-120349185D01*
X120810537Y-120252494D01*
X120869502Y-120142180D01*
X120905812Y-120022482D01*
X120918072Y-119898000D01*
X120918072Y-118398000D01*
X120905812Y-118273518D01*
X120869502Y-118153820D01*
X120810537Y-118043506D01*
X120731185Y-117946815D01*
X120634494Y-117867463D01*
X120524180Y-117808498D01*
X120404482Y-117772188D01*
X120280000Y-117759928D01*
X118480000Y-117759928D01*
X118355518Y-117772188D01*
X118235820Y-117808498D01*
X118125506Y-117867463D01*
X118028815Y-117946815D01*
X117949463Y-118043506D01*
X117890498Y-118153820D01*
X117854188Y-118273518D01*
X117841928Y-118398000D01*
X117841928Y-119898000D01*
X117854188Y-120022482D01*
X117890498Y-120142180D01*
X117949463Y-120252494D01*
X118028815Y-120349185D01*
X118125506Y-120428537D01*
X118235820Y-120487502D01*
X118355518Y-120523812D01*
X118480000Y-120536072D01*
X118724381Y-120536072D01*
X118734048Y-120555367D01*
X118740258Y-120563355D01*
X118745026Y-120572275D01*
X118786151Y-120622387D01*
X118802909Y-120643942D01*
X118809823Y-120651231D01*
X118839999Y-120688001D01*
X118861223Y-120705419D01*
X123147312Y-125224000D01*
X120450802Y-125224000D01*
X115609882Y-120383081D01*
X115651185Y-120349185D01*
X115730537Y-120252494D01*
X115789502Y-120142180D01*
X115825812Y-120022482D01*
X115838072Y-119898000D01*
X115838072Y-118398000D01*
X115825812Y-118273518D01*
X115789502Y-118153820D01*
X115730537Y-118043506D01*
X115651185Y-117946815D01*
X115554494Y-117867463D01*
X115444180Y-117808498D01*
X115324482Y-117772188D01*
X115200000Y-117759928D01*
X113400000Y-117759928D01*
X113275518Y-117772188D01*
X113155820Y-117808498D01*
X113045506Y-117867463D01*
X112948815Y-117946815D01*
X112869463Y-118043506D01*
X112810498Y-118153820D01*
X112774188Y-118273518D01*
X112761928Y-118398000D01*
X112761928Y-119898000D01*
X112774188Y-120022482D01*
X112810498Y-120142180D01*
X112869463Y-120252494D01*
X112948815Y-120349185D01*
X113045506Y-120428537D01*
X113155820Y-120487502D01*
X113275518Y-120523812D01*
X113400000Y-120536072D01*
X113645674Y-120536072D01*
X113665026Y-120572276D01*
X113675120Y-120584575D01*
X113759999Y-120688001D01*
X113789003Y-120711804D01*
X116960198Y-123883000D01*
X116831137Y-123883000D01*
X116621517Y-123924696D01*
X116424060Y-124006485D01*
X116246353Y-124125225D01*
X116095225Y-124276353D01*
X115976485Y-124454060D01*
X115894696Y-124651517D01*
X115853000Y-124861137D01*
X115853000Y-125074863D01*
X115894696Y-125284483D01*
X115976485Y-125481940D01*
X116095225Y-125659647D01*
X116246353Y-125810775D01*
X116424060Y-125929515D01*
X116621517Y-126011304D01*
X116831137Y-126053000D01*
X117044863Y-126053000D01*
X117254483Y-126011304D01*
X117451940Y-125929515D01*
X117629647Y-125810775D01*
X117780775Y-125659647D01*
X117899515Y-125481940D01*
X117981304Y-125284483D01*
X118023000Y-125074863D01*
X118023000Y-124945802D01*
X119417198Y-126340000D01*
X100990000Y-126340000D01*
X100990000Y-124861137D01*
X109053000Y-124861137D01*
X109053000Y-125074863D01*
X109094696Y-125284483D01*
X109176485Y-125481940D01*
X109295225Y-125659647D01*
X109446353Y-125810775D01*
X109624060Y-125929515D01*
X109821517Y-126011304D01*
X110031137Y-126053000D01*
X110244863Y-126053000D01*
X110454483Y-126011304D01*
X110651940Y-125929515D01*
X110829647Y-125810775D01*
X110980775Y-125659647D01*
X111099515Y-125481940D01*
X111181304Y-125284483D01*
X111223000Y-125074863D01*
X111223000Y-124861137D01*
X111181304Y-124651517D01*
X111099515Y-124454060D01*
X110980775Y-124276353D01*
X110829647Y-124125225D01*
X110651940Y-124006485D01*
X110454483Y-123924696D01*
X110244863Y-123883000D01*
X110031137Y-123883000D01*
X109821517Y-123924696D01*
X109624060Y-124006485D01*
X109446353Y-124125225D01*
X109295225Y-124276353D01*
X109176485Y-124454060D01*
X109094696Y-124651517D01*
X109053000Y-124861137D01*
X100990000Y-124861137D01*
X100990000Y-115724023D01*
X102313000Y-115724023D01*
X102313000Y-116183977D01*
X102402733Y-116635094D01*
X102578750Y-117060037D01*
X102834287Y-117442476D01*
X103159524Y-117767713D01*
X103541963Y-118023250D01*
X103966906Y-118199267D01*
X104418023Y-118289000D01*
X104877977Y-118289000D01*
X105329094Y-118199267D01*
X105754037Y-118023250D01*
X106136476Y-117767713D01*
X106461713Y-117442476D01*
X106717250Y-117060037D01*
X106893267Y-116635094D01*
X106983000Y-116183977D01*
X106983000Y-115724023D01*
X106893267Y-115272906D01*
X106717250Y-114847963D01*
X106461713Y-114465524D01*
X106136476Y-114140287D01*
X105754037Y-113884750D01*
X105329094Y-113708733D01*
X104877977Y-113619000D01*
X104418023Y-113619000D01*
X103966906Y-113708733D01*
X103541963Y-113884750D01*
X103159524Y-114140287D01*
X102834287Y-114465524D01*
X102578750Y-114847963D01*
X102402733Y-115272906D01*
X102313000Y-115724023D01*
X100990000Y-115724023D01*
X100990000Y-110384023D01*
X102313000Y-110384023D01*
X102313000Y-110843977D01*
X102402733Y-111295094D01*
X102578750Y-111720037D01*
X102834287Y-112102476D01*
X103159524Y-112427713D01*
X103541963Y-112683250D01*
X103966906Y-112859267D01*
X104418023Y-112949000D01*
X104877977Y-112949000D01*
X105329094Y-112859267D01*
X105754037Y-112683250D01*
X106136476Y-112427713D01*
X106262189Y-112302000D01*
X112761928Y-112302000D01*
X112761928Y-113802000D01*
X112774188Y-113926482D01*
X112810498Y-114046180D01*
X112869463Y-114156494D01*
X112948815Y-114253185D01*
X113005859Y-114300000D01*
X112948815Y-114346815D01*
X112869463Y-114443506D01*
X112810498Y-114553820D01*
X112774188Y-114673518D01*
X112761928Y-114798000D01*
X112761928Y-116298000D01*
X112774188Y-116422482D01*
X112810498Y-116542180D01*
X112869463Y-116652494D01*
X112948815Y-116749185D01*
X113045506Y-116828537D01*
X113155820Y-116887502D01*
X113275518Y-116923812D01*
X113400000Y-116936072D01*
X115200000Y-116936072D01*
X115324482Y-116923812D01*
X115444180Y-116887502D01*
X115554494Y-116828537D01*
X115651185Y-116749185D01*
X115730537Y-116652494D01*
X115789502Y-116542180D01*
X115825812Y-116422482D01*
X115838072Y-116298000D01*
X115838072Y-114798000D01*
X115825812Y-114673518D01*
X115789502Y-114553820D01*
X115730537Y-114443506D01*
X115651185Y-114346815D01*
X115594141Y-114300000D01*
X115651185Y-114253185D01*
X115730537Y-114156494D01*
X115789502Y-114046180D01*
X115825812Y-113926482D01*
X115838072Y-113802000D01*
X115838072Y-112302000D01*
X117841928Y-112302000D01*
X117841928Y-113802000D01*
X117854188Y-113926482D01*
X117890498Y-114046180D01*
X117949463Y-114156494D01*
X118028815Y-114253185D01*
X118085859Y-114300000D01*
X118028815Y-114346815D01*
X117949463Y-114443506D01*
X117890498Y-114553820D01*
X117854188Y-114673518D01*
X117841928Y-114798000D01*
X117841928Y-116298000D01*
X117854188Y-116422482D01*
X117890498Y-116542180D01*
X117949463Y-116652494D01*
X118028815Y-116749185D01*
X118125506Y-116828537D01*
X118235820Y-116887502D01*
X118355518Y-116923812D01*
X118480000Y-116936072D01*
X120280000Y-116936072D01*
X120404482Y-116923812D01*
X120524180Y-116887502D01*
X120634494Y-116828537D01*
X120731185Y-116749185D01*
X120810537Y-116652494D01*
X120869502Y-116542180D01*
X120905812Y-116422482D01*
X120918072Y-116298000D01*
X120918072Y-114798000D01*
X120905812Y-114673518D01*
X120869502Y-114553820D01*
X120810537Y-114443506D01*
X120731185Y-114346815D01*
X120674141Y-114300000D01*
X120731185Y-114253185D01*
X120810537Y-114156494D01*
X120869502Y-114046180D01*
X120905812Y-113926482D01*
X120918072Y-113802000D01*
X120918072Y-112302000D01*
X122921928Y-112302000D01*
X122921928Y-113802000D01*
X122934188Y-113926482D01*
X122970498Y-114046180D01*
X123029463Y-114156494D01*
X123108815Y-114253185D01*
X123165859Y-114300000D01*
X123108815Y-114346815D01*
X123029463Y-114443506D01*
X122970498Y-114553820D01*
X122934188Y-114673518D01*
X122921928Y-114798000D01*
X122921928Y-116298000D01*
X122934188Y-116422482D01*
X122970498Y-116542180D01*
X123029463Y-116652494D01*
X123108815Y-116749185D01*
X123205506Y-116828537D01*
X123315820Y-116887502D01*
X123435518Y-116923812D01*
X123560000Y-116936072D01*
X125360000Y-116936072D01*
X125484482Y-116923812D01*
X125604180Y-116887502D01*
X125714494Y-116828537D01*
X125811185Y-116749185D01*
X125890537Y-116652494D01*
X125949502Y-116542180D01*
X125985812Y-116422482D01*
X125998072Y-116298000D01*
X125998072Y-114798000D01*
X125985812Y-114673518D01*
X125949502Y-114553820D01*
X125890537Y-114443506D01*
X125811185Y-114346815D01*
X125754141Y-114300000D01*
X125811185Y-114253185D01*
X125890537Y-114156494D01*
X125949502Y-114046180D01*
X125985812Y-113926482D01*
X125998072Y-113802000D01*
X125998072Y-112302000D01*
X128001928Y-112302000D01*
X128001928Y-113802000D01*
X128014188Y-113926482D01*
X128050498Y-114046180D01*
X128109463Y-114156494D01*
X128188815Y-114253185D01*
X128245859Y-114300000D01*
X128188815Y-114346815D01*
X128109463Y-114443506D01*
X128050498Y-114553820D01*
X128014188Y-114673518D01*
X128001928Y-114798000D01*
X128001928Y-116298000D01*
X128014188Y-116422482D01*
X128050498Y-116542180D01*
X128109463Y-116652494D01*
X128188815Y-116749185D01*
X128285506Y-116828537D01*
X128395820Y-116887502D01*
X128515518Y-116923812D01*
X128640000Y-116936072D01*
X130440000Y-116936072D01*
X130564482Y-116923812D01*
X130684180Y-116887502D01*
X130794494Y-116828537D01*
X130891185Y-116749185D01*
X130970537Y-116652494D01*
X131029502Y-116542180D01*
X131065812Y-116422482D01*
X131078072Y-116298000D01*
X131078072Y-114798000D01*
X131065812Y-114673518D01*
X131029502Y-114553820D01*
X130970537Y-114443506D01*
X130891185Y-114346815D01*
X130834141Y-114300000D01*
X130891185Y-114253185D01*
X130970537Y-114156494D01*
X131029502Y-114046180D01*
X131065812Y-113926482D01*
X131078072Y-113802000D01*
X131078072Y-112302000D01*
X133081928Y-112302000D01*
X133081928Y-113802000D01*
X133094188Y-113926482D01*
X133130498Y-114046180D01*
X133189463Y-114156494D01*
X133268815Y-114253185D01*
X133325859Y-114300000D01*
X133268815Y-114346815D01*
X133189463Y-114443506D01*
X133130498Y-114553820D01*
X133094188Y-114673518D01*
X133081928Y-114798000D01*
X133081928Y-116298000D01*
X133094188Y-116422482D01*
X133130498Y-116542180D01*
X133189463Y-116652494D01*
X133268815Y-116749185D01*
X133365506Y-116828537D01*
X133475820Y-116887502D01*
X133595518Y-116923812D01*
X133720000Y-116936072D01*
X135520000Y-116936072D01*
X135644482Y-116923812D01*
X135764180Y-116887502D01*
X135874494Y-116828537D01*
X135971185Y-116749185D01*
X136050537Y-116652494D01*
X136109502Y-116542180D01*
X136145812Y-116422482D01*
X136158072Y-116298000D01*
X136158072Y-114798000D01*
X136145812Y-114673518D01*
X136109502Y-114553820D01*
X136050537Y-114443506D01*
X135971185Y-114346815D01*
X135914141Y-114300000D01*
X135971185Y-114253185D01*
X136050537Y-114156494D01*
X136109502Y-114046180D01*
X136145812Y-113926482D01*
X136158072Y-113802000D01*
X136158072Y-112302000D01*
X138161928Y-112302000D01*
X138161928Y-113802000D01*
X138174188Y-113926482D01*
X138210498Y-114046180D01*
X138269463Y-114156494D01*
X138348815Y-114253185D01*
X138405859Y-114300000D01*
X138348815Y-114346815D01*
X138269463Y-114443506D01*
X138210498Y-114553820D01*
X138174188Y-114673518D01*
X138161928Y-114798000D01*
X138161928Y-116298000D01*
X138174188Y-116422482D01*
X138210498Y-116542180D01*
X138269463Y-116652494D01*
X138348815Y-116749185D01*
X138445506Y-116828537D01*
X138555820Y-116887502D01*
X138675518Y-116923812D01*
X138800000Y-116936072D01*
X140600000Y-116936072D01*
X140724482Y-116923812D01*
X140844180Y-116887502D01*
X140954494Y-116828537D01*
X141051185Y-116749185D01*
X141130537Y-116652494D01*
X141189502Y-116542180D01*
X141225812Y-116422482D01*
X141238072Y-116298000D01*
X141238072Y-114798000D01*
X141225812Y-114673518D01*
X141189502Y-114553820D01*
X141130537Y-114443506D01*
X141051185Y-114346815D01*
X140994141Y-114300000D01*
X141051185Y-114253185D01*
X141130537Y-114156494D01*
X141189502Y-114046180D01*
X141225812Y-113926482D01*
X141238072Y-113802000D01*
X141238072Y-112302000D01*
X143241928Y-112302000D01*
X143241928Y-113802000D01*
X143254188Y-113926482D01*
X143290498Y-114046180D01*
X143349463Y-114156494D01*
X143428815Y-114253185D01*
X143485859Y-114300000D01*
X143428815Y-114346815D01*
X143349463Y-114443506D01*
X143290498Y-114553820D01*
X143254188Y-114673518D01*
X143241928Y-114798000D01*
X143241928Y-116298000D01*
X143254188Y-116422482D01*
X143290498Y-116542180D01*
X143349463Y-116652494D01*
X143428815Y-116749185D01*
X143525506Y-116828537D01*
X143635820Y-116887502D01*
X143755518Y-116923812D01*
X143880000Y-116936072D01*
X145680000Y-116936072D01*
X145804482Y-116923812D01*
X145924180Y-116887502D01*
X146034494Y-116828537D01*
X146131185Y-116749185D01*
X146210537Y-116652494D01*
X146269502Y-116542180D01*
X146305812Y-116422482D01*
X146318072Y-116298000D01*
X146318072Y-114798000D01*
X146305812Y-114673518D01*
X146269502Y-114553820D01*
X146210537Y-114443506D01*
X146131185Y-114346815D01*
X146074141Y-114300000D01*
X146131185Y-114253185D01*
X146210537Y-114156494D01*
X146269502Y-114046180D01*
X146305812Y-113926482D01*
X146318072Y-113802000D01*
X146318072Y-112302000D01*
X148321928Y-112302000D01*
X148321928Y-113802000D01*
X148334188Y-113926482D01*
X148370498Y-114046180D01*
X148429463Y-114156494D01*
X148508815Y-114253185D01*
X148565859Y-114300000D01*
X148508815Y-114346815D01*
X148429463Y-114443506D01*
X148370498Y-114553820D01*
X148334188Y-114673518D01*
X148321928Y-114798000D01*
X148321928Y-116298000D01*
X148334188Y-116422482D01*
X148370498Y-116542180D01*
X148429463Y-116652494D01*
X148508815Y-116749185D01*
X148605506Y-116828537D01*
X148715820Y-116887502D01*
X148835518Y-116923812D01*
X148960000Y-116936072D01*
X150760000Y-116936072D01*
X150884482Y-116923812D01*
X151004180Y-116887502D01*
X151114494Y-116828537D01*
X151211185Y-116749185D01*
X151290537Y-116652494D01*
X151349502Y-116542180D01*
X151385812Y-116422482D01*
X151398072Y-116298000D01*
X151398072Y-114798000D01*
X151385812Y-114673518D01*
X151349502Y-114553820D01*
X151290537Y-114443506D01*
X151211185Y-114346815D01*
X151154141Y-114300000D01*
X151211185Y-114253185D01*
X151290537Y-114156494D01*
X151349502Y-114046180D01*
X151385812Y-113926482D01*
X151398072Y-113802000D01*
X151398072Y-112302000D01*
X151385812Y-112177518D01*
X151349502Y-112057820D01*
X151290537Y-111947506D01*
X151211185Y-111850815D01*
X151114494Y-111771463D01*
X151004180Y-111712498D01*
X150884482Y-111676188D01*
X150760000Y-111663928D01*
X148960000Y-111663928D01*
X148835518Y-111676188D01*
X148715820Y-111712498D01*
X148605506Y-111771463D01*
X148508815Y-111850815D01*
X148429463Y-111947506D01*
X148370498Y-112057820D01*
X148334188Y-112177518D01*
X148321928Y-112302000D01*
X146318072Y-112302000D01*
X146305812Y-112177518D01*
X146269502Y-112057820D01*
X146210537Y-111947506D01*
X146131185Y-111850815D01*
X146034494Y-111771463D01*
X145924180Y-111712498D01*
X145804482Y-111676188D01*
X145680000Y-111663928D01*
X143880000Y-111663928D01*
X143755518Y-111676188D01*
X143635820Y-111712498D01*
X143525506Y-111771463D01*
X143428815Y-111850815D01*
X143349463Y-111947506D01*
X143290498Y-112057820D01*
X143254188Y-112177518D01*
X143241928Y-112302000D01*
X141238072Y-112302000D01*
X141225812Y-112177518D01*
X141189502Y-112057820D01*
X141130537Y-111947506D01*
X141051185Y-111850815D01*
X140954494Y-111771463D01*
X140844180Y-111712498D01*
X140724482Y-111676188D01*
X140600000Y-111663928D01*
X138800000Y-111663928D01*
X138675518Y-111676188D01*
X138555820Y-111712498D01*
X138445506Y-111771463D01*
X138348815Y-111850815D01*
X138269463Y-111947506D01*
X138210498Y-112057820D01*
X138174188Y-112177518D01*
X138161928Y-112302000D01*
X136158072Y-112302000D01*
X136145812Y-112177518D01*
X136109502Y-112057820D01*
X136050537Y-111947506D01*
X135971185Y-111850815D01*
X135874494Y-111771463D01*
X135764180Y-111712498D01*
X135644482Y-111676188D01*
X135520000Y-111663928D01*
X133720000Y-111663928D01*
X133595518Y-111676188D01*
X133475820Y-111712498D01*
X133365506Y-111771463D01*
X133268815Y-111850815D01*
X133189463Y-111947506D01*
X133130498Y-112057820D01*
X133094188Y-112177518D01*
X133081928Y-112302000D01*
X131078072Y-112302000D01*
X131065812Y-112177518D01*
X131029502Y-112057820D01*
X130970537Y-111947506D01*
X130891185Y-111850815D01*
X130794494Y-111771463D01*
X130684180Y-111712498D01*
X130564482Y-111676188D01*
X130440000Y-111663928D01*
X128640000Y-111663928D01*
X128515518Y-111676188D01*
X128395820Y-111712498D01*
X128285506Y-111771463D01*
X128188815Y-111850815D01*
X128109463Y-111947506D01*
X128050498Y-112057820D01*
X128014188Y-112177518D01*
X128001928Y-112302000D01*
X125998072Y-112302000D01*
X125985812Y-112177518D01*
X125949502Y-112057820D01*
X125890537Y-111947506D01*
X125811185Y-111850815D01*
X125714494Y-111771463D01*
X125604180Y-111712498D01*
X125484482Y-111676188D01*
X125360000Y-111663928D01*
X123560000Y-111663928D01*
X123435518Y-111676188D01*
X123315820Y-111712498D01*
X123205506Y-111771463D01*
X123108815Y-111850815D01*
X123029463Y-111947506D01*
X122970498Y-112057820D01*
X122934188Y-112177518D01*
X122921928Y-112302000D01*
X120918072Y-112302000D01*
X120905812Y-112177518D01*
X120869502Y-112057820D01*
X120810537Y-111947506D01*
X120731185Y-111850815D01*
X120634494Y-111771463D01*
X120524180Y-111712498D01*
X120404482Y-111676188D01*
X120280000Y-111663928D01*
X118480000Y-111663928D01*
X118355518Y-111676188D01*
X118235820Y-111712498D01*
X118125506Y-111771463D01*
X118028815Y-111850815D01*
X117949463Y-111947506D01*
X117890498Y-112057820D01*
X117854188Y-112177518D01*
X117841928Y-112302000D01*
X115838072Y-112302000D01*
X115825812Y-112177518D01*
X115789502Y-112057820D01*
X115730537Y-111947506D01*
X115651185Y-111850815D01*
X115554494Y-111771463D01*
X115444180Y-111712498D01*
X115324482Y-111676188D01*
X115200000Y-111663928D01*
X113400000Y-111663928D01*
X113275518Y-111676188D01*
X113155820Y-111712498D01*
X113045506Y-111771463D01*
X112948815Y-111850815D01*
X112869463Y-111947506D01*
X112810498Y-112057820D01*
X112774188Y-112177518D01*
X112761928Y-112302000D01*
X106262189Y-112302000D01*
X106461713Y-112102476D01*
X106717250Y-111720037D01*
X106893267Y-111295094D01*
X106983000Y-110843977D01*
X106983000Y-110384023D01*
X106893267Y-109932906D01*
X106717250Y-109507963D01*
X106626444Y-109372061D01*
X108693000Y-109372061D01*
X108693000Y-109575939D01*
X108732774Y-109775898D01*
X108810795Y-109964256D01*
X108924063Y-110133774D01*
X109068226Y-110277937D01*
X109237744Y-110391205D01*
X109426102Y-110469226D01*
X109626061Y-110509000D01*
X109829939Y-110509000D01*
X110029898Y-110469226D01*
X110218256Y-110391205D01*
X110387774Y-110277937D01*
X110453711Y-110212000D01*
X112762913Y-110212000D01*
X112774188Y-110326482D01*
X112810498Y-110446180D01*
X112869463Y-110556494D01*
X112948815Y-110653185D01*
X113045506Y-110732537D01*
X113155820Y-110791502D01*
X113275518Y-110827812D01*
X113400000Y-110840072D01*
X115200000Y-110840072D01*
X115324482Y-110827812D01*
X115444180Y-110791502D01*
X115554494Y-110732537D01*
X115651185Y-110653185D01*
X115730537Y-110556494D01*
X115789502Y-110446180D01*
X115825812Y-110326482D01*
X115837087Y-110212000D01*
X117842913Y-110212000D01*
X117854188Y-110326482D01*
X117890498Y-110446180D01*
X117949463Y-110556494D01*
X118028815Y-110653185D01*
X118125506Y-110732537D01*
X118235820Y-110791502D01*
X118355518Y-110827812D01*
X118480000Y-110840072D01*
X120280000Y-110840072D01*
X120404482Y-110827812D01*
X120524180Y-110791502D01*
X120634494Y-110732537D01*
X120731185Y-110653185D01*
X120810537Y-110556494D01*
X120869502Y-110446180D01*
X120905812Y-110326482D01*
X120917087Y-110212000D01*
X122922913Y-110212000D01*
X122934188Y-110326482D01*
X122970498Y-110446180D01*
X123029463Y-110556494D01*
X123108815Y-110653185D01*
X123205506Y-110732537D01*
X123315820Y-110791502D01*
X123435518Y-110827812D01*
X123560000Y-110840072D01*
X125360000Y-110840072D01*
X125484482Y-110827812D01*
X125604180Y-110791502D01*
X125714494Y-110732537D01*
X125811185Y-110653185D01*
X125890537Y-110556494D01*
X125949502Y-110446180D01*
X125985812Y-110326482D01*
X125997087Y-110212000D01*
X128002913Y-110212000D01*
X128014188Y-110326482D01*
X128050498Y-110446180D01*
X128109463Y-110556494D01*
X128188815Y-110653185D01*
X128285506Y-110732537D01*
X128395820Y-110791502D01*
X128515518Y-110827812D01*
X128640000Y-110840072D01*
X130440000Y-110840072D01*
X130564482Y-110827812D01*
X130684180Y-110791502D01*
X130794494Y-110732537D01*
X130891185Y-110653185D01*
X130970537Y-110556494D01*
X131029502Y-110446180D01*
X131065812Y-110326482D01*
X131077087Y-110212000D01*
X133082913Y-110212000D01*
X133094188Y-110326482D01*
X133130498Y-110446180D01*
X133189463Y-110556494D01*
X133268815Y-110653185D01*
X133365506Y-110732537D01*
X133475820Y-110791502D01*
X133595518Y-110827812D01*
X133720000Y-110840072D01*
X135520000Y-110840072D01*
X135644482Y-110827812D01*
X135764180Y-110791502D01*
X135874494Y-110732537D01*
X135971185Y-110653185D01*
X136050537Y-110556494D01*
X136109502Y-110446180D01*
X136145812Y-110326482D01*
X136157087Y-110212000D01*
X138162913Y-110212000D01*
X138174188Y-110326482D01*
X138210498Y-110446180D01*
X138269463Y-110556494D01*
X138348815Y-110653185D01*
X138445506Y-110732537D01*
X138555820Y-110791502D01*
X138675518Y-110827812D01*
X138800000Y-110840072D01*
X140600000Y-110840072D01*
X140724482Y-110827812D01*
X140844180Y-110791502D01*
X140954494Y-110732537D01*
X141051185Y-110653185D01*
X141130537Y-110556494D01*
X141189502Y-110446180D01*
X141225812Y-110326482D01*
X141237087Y-110212000D01*
X143242913Y-110212000D01*
X143254188Y-110326482D01*
X143290498Y-110446180D01*
X143349463Y-110556494D01*
X143428815Y-110653185D01*
X143525506Y-110732537D01*
X143635820Y-110791502D01*
X143755518Y-110827812D01*
X143880000Y-110840072D01*
X145680000Y-110840072D01*
X145804482Y-110827812D01*
X145924180Y-110791502D01*
X146034494Y-110732537D01*
X146131185Y-110653185D01*
X146210537Y-110556494D01*
X146269502Y-110446180D01*
X146305812Y-110326482D01*
X146317087Y-110212000D01*
X148322913Y-110212000D01*
X148334188Y-110326482D01*
X148370498Y-110446180D01*
X148429463Y-110556494D01*
X148508815Y-110653185D01*
X148605506Y-110732537D01*
X148715820Y-110791502D01*
X148835518Y-110827812D01*
X148960000Y-110840072D01*
X150760000Y-110840072D01*
X150884482Y-110827812D01*
X151004180Y-110791502D01*
X151114494Y-110732537D01*
X151211185Y-110653185D01*
X151290537Y-110556494D01*
X151349502Y-110446180D01*
X151385812Y-110326482D01*
X151397087Y-110212000D01*
X151674289Y-110212000D01*
X151740226Y-110277937D01*
X151909744Y-110391205D01*
X152098102Y-110469226D01*
X152298061Y-110509000D01*
X152501939Y-110509000D01*
X152701898Y-110469226D01*
X152890256Y-110391205D01*
X153059774Y-110277937D01*
X153203937Y-110133774D01*
X153317205Y-109964256D01*
X153395226Y-109775898D01*
X153435000Y-109575939D01*
X153435000Y-109372061D01*
X153395226Y-109172102D01*
X153317205Y-108983744D01*
X153203937Y-108814226D01*
X153059774Y-108670063D01*
X152890256Y-108556795D01*
X152701898Y-108478774D01*
X152501939Y-108439000D01*
X152298061Y-108439000D01*
X152098102Y-108478774D01*
X151909744Y-108556795D01*
X151740226Y-108670063D01*
X151718289Y-108692000D01*
X151397087Y-108692000D01*
X151385812Y-108577518D01*
X151349502Y-108457820D01*
X151290537Y-108347506D01*
X151211185Y-108250815D01*
X151114494Y-108171463D01*
X151004180Y-108112498D01*
X150884482Y-108076188D01*
X150760000Y-108063928D01*
X148960000Y-108063928D01*
X148835518Y-108076188D01*
X148715820Y-108112498D01*
X148605506Y-108171463D01*
X148508815Y-108250815D01*
X148429463Y-108347506D01*
X148370498Y-108457820D01*
X148334188Y-108577518D01*
X148322913Y-108692000D01*
X146317087Y-108692000D01*
X146305812Y-108577518D01*
X146269502Y-108457820D01*
X146210537Y-108347506D01*
X146131185Y-108250815D01*
X146034494Y-108171463D01*
X145924180Y-108112498D01*
X145804482Y-108076188D01*
X145680000Y-108063928D01*
X143880000Y-108063928D01*
X143755518Y-108076188D01*
X143635820Y-108112498D01*
X143525506Y-108171463D01*
X143428815Y-108250815D01*
X143349463Y-108347506D01*
X143290498Y-108457820D01*
X143254188Y-108577518D01*
X143242913Y-108692000D01*
X141237087Y-108692000D01*
X141225812Y-108577518D01*
X141189502Y-108457820D01*
X141130537Y-108347506D01*
X141051185Y-108250815D01*
X140954494Y-108171463D01*
X140844180Y-108112498D01*
X140724482Y-108076188D01*
X140600000Y-108063928D01*
X138800000Y-108063928D01*
X138675518Y-108076188D01*
X138555820Y-108112498D01*
X138445506Y-108171463D01*
X138348815Y-108250815D01*
X138269463Y-108347506D01*
X138210498Y-108457820D01*
X138174188Y-108577518D01*
X138162913Y-108692000D01*
X136157087Y-108692000D01*
X136145812Y-108577518D01*
X136109502Y-108457820D01*
X136050537Y-108347506D01*
X135971185Y-108250815D01*
X135874494Y-108171463D01*
X135764180Y-108112498D01*
X135644482Y-108076188D01*
X135520000Y-108063928D01*
X133720000Y-108063928D01*
X133595518Y-108076188D01*
X133475820Y-108112498D01*
X133365506Y-108171463D01*
X133268815Y-108250815D01*
X133189463Y-108347506D01*
X133130498Y-108457820D01*
X133094188Y-108577518D01*
X133082913Y-108692000D01*
X131077087Y-108692000D01*
X131065812Y-108577518D01*
X131029502Y-108457820D01*
X130970537Y-108347506D01*
X130891185Y-108250815D01*
X130794494Y-108171463D01*
X130684180Y-108112498D01*
X130564482Y-108076188D01*
X130440000Y-108063928D01*
X128640000Y-108063928D01*
X128515518Y-108076188D01*
X128395820Y-108112498D01*
X128285506Y-108171463D01*
X128188815Y-108250815D01*
X128109463Y-108347506D01*
X128050498Y-108457820D01*
X128014188Y-108577518D01*
X128002913Y-108692000D01*
X125997087Y-108692000D01*
X125985812Y-108577518D01*
X125949502Y-108457820D01*
X125890537Y-108347506D01*
X125811185Y-108250815D01*
X125714494Y-108171463D01*
X125604180Y-108112498D01*
X125484482Y-108076188D01*
X125360000Y-108063928D01*
X123560000Y-108063928D01*
X123435518Y-108076188D01*
X123315820Y-108112498D01*
X123205506Y-108171463D01*
X123108815Y-108250815D01*
X123029463Y-108347506D01*
X122970498Y-108457820D01*
X122934188Y-108577518D01*
X122922913Y-108692000D01*
X120917087Y-108692000D01*
X120905812Y-108577518D01*
X120869502Y-108457820D01*
X120810537Y-108347506D01*
X120731185Y-108250815D01*
X120634494Y-108171463D01*
X120524180Y-108112498D01*
X120404482Y-108076188D01*
X120280000Y-108063928D01*
X118480000Y-108063928D01*
X118355518Y-108076188D01*
X118235820Y-108112498D01*
X118125506Y-108171463D01*
X118028815Y-108250815D01*
X117949463Y-108347506D01*
X117890498Y-108457820D01*
X117854188Y-108577518D01*
X117842913Y-108692000D01*
X115837087Y-108692000D01*
X115825812Y-108577518D01*
X115789502Y-108457820D01*
X115730537Y-108347506D01*
X115651185Y-108250815D01*
X115554494Y-108171463D01*
X115444180Y-108112498D01*
X115324482Y-108076188D01*
X115200000Y-108063928D01*
X113400000Y-108063928D01*
X113275518Y-108076188D01*
X113155820Y-108112498D01*
X113045506Y-108171463D01*
X112948815Y-108250815D01*
X112869463Y-108347506D01*
X112810498Y-108457820D01*
X112774188Y-108577518D01*
X112762913Y-108692000D01*
X110409711Y-108692000D01*
X110387774Y-108670063D01*
X110218256Y-108556795D01*
X110029898Y-108478774D01*
X109829939Y-108439000D01*
X109626061Y-108439000D01*
X109426102Y-108478774D01*
X109237744Y-108556795D01*
X109068226Y-108670063D01*
X108924063Y-108814226D01*
X108810795Y-108983744D01*
X108732774Y-109172102D01*
X108693000Y-109372061D01*
X106626444Y-109372061D01*
X106461713Y-109125524D01*
X106136476Y-108800287D01*
X105754037Y-108544750D01*
X105329094Y-108368733D01*
X104877977Y-108279000D01*
X104418023Y-108279000D01*
X103966906Y-108368733D01*
X103541963Y-108544750D01*
X103159524Y-108800287D01*
X102834287Y-109125524D01*
X102578750Y-109507963D01*
X102402733Y-109932906D01*
X102313000Y-110384023D01*
X100990000Y-110384023D01*
X100990000Y-105562061D01*
X130791000Y-105562061D01*
X130791000Y-105765939D01*
X130830774Y-105965898D01*
X130908795Y-106154256D01*
X131022063Y-106323774D01*
X131166226Y-106467937D01*
X131335744Y-106581205D01*
X131524102Y-106659226D01*
X131724061Y-106699000D01*
X131927939Y-106699000D01*
X132094039Y-106665961D01*
X132061000Y-106832061D01*
X132061000Y-107035939D01*
X132100774Y-107235898D01*
X132178795Y-107424256D01*
X132292063Y-107593774D01*
X132436226Y-107737937D01*
X132605744Y-107851205D01*
X132794102Y-107929226D01*
X132994061Y-107969000D01*
X133197939Y-107969000D01*
X133397898Y-107929226D01*
X133586256Y-107851205D01*
X133755774Y-107737937D01*
X133799711Y-107694000D01*
X136456289Y-107694000D01*
X136500226Y-107737937D01*
X136669744Y-107851205D01*
X136858102Y-107929226D01*
X137058061Y-107969000D01*
X137261939Y-107969000D01*
X137461898Y-107929226D01*
X137650256Y-107851205D01*
X137819774Y-107737937D01*
X137963937Y-107593774D01*
X138077205Y-107424256D01*
X138155226Y-107235898D01*
X138195000Y-107035939D01*
X138195000Y-106832061D01*
X138155226Y-106632102D01*
X138111335Y-106526141D01*
X138193744Y-106581205D01*
X138382102Y-106659226D01*
X138582061Y-106699000D01*
X138785939Y-106699000D01*
X138985898Y-106659226D01*
X139174256Y-106581205D01*
X139343774Y-106467937D01*
X139487937Y-106323774D01*
X139601205Y-106154256D01*
X139679226Y-105965898D01*
X139719000Y-105765939D01*
X139719000Y-105562061D01*
X139679226Y-105362102D01*
X139646273Y-105282545D01*
X140769061Y-105282545D01*
X140866032Y-105547968D01*
X141157353Y-105689856D01*
X141470757Y-105772185D01*
X141794200Y-105791789D01*
X142115253Y-105747916D01*
X142421578Y-105642251D01*
X142597968Y-105547968D01*
X142694939Y-105282545D01*
X141732000Y-104319605D01*
X140769061Y-105282545D01*
X139646273Y-105282545D01*
X139601205Y-105173744D01*
X139487937Y-105004226D01*
X139343774Y-104860063D01*
X139174256Y-104746795D01*
X138985898Y-104668774D01*
X138785939Y-104629000D01*
X138582061Y-104629000D01*
X138382102Y-104668774D01*
X138193744Y-104746795D01*
X138024226Y-104860063D01*
X137980289Y-104904000D01*
X132529711Y-104904000D01*
X132485774Y-104860063D01*
X132316256Y-104746795D01*
X132127898Y-104668774D01*
X131927939Y-104629000D01*
X131724061Y-104629000D01*
X131524102Y-104668774D01*
X131335744Y-104746795D01*
X131166226Y-104860063D01*
X131022063Y-105004226D01*
X130908795Y-105173744D01*
X130830774Y-105362102D01*
X130791000Y-105562061D01*
X100990000Y-105562061D01*
X100990000Y-104202200D01*
X140080211Y-104202200D01*
X140124084Y-104523253D01*
X140229749Y-104829578D01*
X140324032Y-105005968D01*
X140589455Y-105102939D01*
X141552395Y-104140000D01*
X141911605Y-104140000D01*
X142874545Y-105102939D01*
X143139968Y-105005968D01*
X143281856Y-104714647D01*
X143364185Y-104401243D01*
X143383789Y-104077800D01*
X143370149Y-103977982D01*
X146437000Y-103977982D01*
X146437000Y-104302018D01*
X146500217Y-104619829D01*
X146624220Y-104919199D01*
X146804245Y-105188626D01*
X147033374Y-105417755D01*
X147302801Y-105597780D01*
X147602171Y-105721783D01*
X147919982Y-105785000D01*
X148244018Y-105785000D01*
X148561829Y-105721783D01*
X148861199Y-105597780D01*
X149130626Y-105417755D01*
X149359755Y-105188626D01*
X149539780Y-104919199D01*
X149663783Y-104619829D01*
X149727000Y-104302018D01*
X149727000Y-103977982D01*
X152787000Y-103977982D01*
X152787000Y-104302018D01*
X152850217Y-104619829D01*
X152974220Y-104919199D01*
X153154245Y-105188626D01*
X153383374Y-105417755D01*
X153652801Y-105597780D01*
X153952171Y-105721783D01*
X154269982Y-105785000D01*
X154594018Y-105785000D01*
X154911829Y-105721783D01*
X155211199Y-105597780D01*
X155480626Y-105417755D01*
X155709755Y-105188626D01*
X155889780Y-104919199D01*
X156013783Y-104619829D01*
X156077000Y-104302018D01*
X156077000Y-103977982D01*
X156013783Y-103660171D01*
X155889780Y-103360801D01*
X155709755Y-103091374D01*
X155480626Y-102862245D01*
X155211199Y-102682220D01*
X154911829Y-102558217D01*
X154594018Y-102495000D01*
X154269982Y-102495000D01*
X153952171Y-102558217D01*
X153652801Y-102682220D01*
X153383374Y-102862245D01*
X153154245Y-103091374D01*
X152974220Y-103360801D01*
X152850217Y-103660171D01*
X152787000Y-103977982D01*
X149727000Y-103977982D01*
X149663783Y-103660171D01*
X149539780Y-103360801D01*
X149359755Y-103091374D01*
X149130626Y-102862245D01*
X148861199Y-102682220D01*
X148561829Y-102558217D01*
X148244018Y-102495000D01*
X147919982Y-102495000D01*
X147602171Y-102558217D01*
X147302801Y-102682220D01*
X147033374Y-102862245D01*
X146804245Y-103091374D01*
X146624220Y-103360801D01*
X146500217Y-103660171D01*
X146437000Y-103977982D01*
X143370149Y-103977982D01*
X143339916Y-103756747D01*
X143234251Y-103450422D01*
X143139968Y-103274032D01*
X142874545Y-103177061D01*
X141911605Y-104140000D01*
X141552395Y-104140000D01*
X140589455Y-103177061D01*
X140324032Y-103274032D01*
X140182144Y-103565353D01*
X140099815Y-103878757D01*
X140080211Y-104202200D01*
X100990000Y-104202200D01*
X100990000Y-102997455D01*
X140769061Y-102997455D01*
X141732000Y-103960395D01*
X142694939Y-102997455D01*
X142597968Y-102732032D01*
X142306647Y-102590144D01*
X141993243Y-102507815D01*
X141669800Y-102488211D01*
X141348747Y-102532084D01*
X141042422Y-102637749D01*
X140866032Y-102732032D01*
X140769061Y-102997455D01*
X100990000Y-102997455D01*
X100990000Y-102260000D01*
X163170000Y-102260000D01*
X163170001Y-126340000D01*
M02*
