G04 #@! TF.GenerationSoftware,KiCad,Pcbnew,(5.1.2)-2*
G04 #@! TF.CreationDate,2019-06-19T15:06:05-04:00*
G04 #@! TF.ProjectId,binary_counter,62696e61-7279-45f6-936f-756e7465722e,rev?*
G04 #@! TF.SameCoordinates,Original*
G04 #@! TF.FileFunction,Legend,Top*
G04 #@! TF.FilePolarity,Positive*
%FSLAX46Y46*%
G04 Gerber Fmt 4.6, Leading zero omitted, Abs format (unit mm)*
G04 Created by KiCad (PCBNEW (5.1.2)-2) date 2019-06-19 15:06:05*
%MOMM*%
%LPD*%
G04 APERTURE LIST*
%ADD10C,0.100000*%
%ADD11C,0.203200*%
%ADD12C,0.120000*%
%ADD13C,0.150000*%
G04 APERTURE END LIST*
D10*
X135128000Y-123052000D02*
X135628000Y-123052000D01*
X135128000Y-123052000D02*
X134628000Y-123052000D01*
X135128000Y-124852000D02*
X135628000Y-124852000D01*
X135128000Y-124852000D02*
X134628000Y-124852000D01*
X132528000Y-123652000D02*
X132528000Y-124252000D01*
X137728000Y-123652000D02*
X137728000Y-124252000D01*
D11*
X120492000Y-126618000D02*
X129952000Y-126618000D01*
X129952000Y-126618000D02*
X129952000Y-122618000D01*
X120492000Y-126618000D02*
X120492000Y-122618000D01*
X120492000Y-110618000D02*
X120492000Y-114618000D01*
X129952000Y-110618000D02*
X120492000Y-110618000D01*
X129952000Y-110618000D02*
X129952000Y-114618000D01*
X119803000Y-113418000D02*
G75*
G03X119803000Y-113418000I-381000J0D01*
G01*
D10*
X143102000Y-104140000D02*
G75*
G03X143102000Y-104140000I-1370000J0D01*
G01*
X149452000Y-104140000D02*
G75*
G03X149452000Y-104140000I-1370000J0D01*
G01*
X155802000Y-104140000D02*
G75*
G03X155802000Y-104140000I-1370000J0D01*
G01*
D12*
X133672000Y-105082000D02*
X133672000Y-114882000D01*
X137092000Y-105082000D02*
X137092000Y-114882000D01*
D11*
X109419000Y-121768000D02*
G75*
G03X109419000Y-121768000I-381000J0D01*
G01*
X118038000Y-126768000D02*
X109038000Y-126768000D01*
X118038000Y-123168000D02*
X118038000Y-126768000D01*
X109038000Y-123168000D02*
X118038000Y-123168000D01*
X109038000Y-123168000D02*
X109038000Y-126768000D01*
X114148000Y-117884000D02*
X114148000Y-115784000D01*
X114148000Y-108684000D02*
X114148000Y-110784000D01*
X116429000Y-117184000D02*
G75*
G03X116429000Y-117184000I-381000J0D01*
G01*
X100648000Y-108684000D02*
X114148000Y-108684000D01*
X100648000Y-117884000D02*
X114148000Y-117884000D01*
X100648000Y-108684000D02*
X100648000Y-117884000D01*
D13*
X141482000Y-122491000D02*
X141482000Y-123766000D01*
X140907000Y-108141000D02*
X140907000Y-108816000D01*
X155257000Y-108141000D02*
X155257000Y-108816000D01*
X155257000Y-122491000D02*
X155257000Y-121816000D01*
X140907000Y-122491000D02*
X140907000Y-121816000D01*
X155257000Y-122491000D02*
X154582000Y-122491000D01*
X155257000Y-108141000D02*
X154582000Y-108141000D01*
X140907000Y-108141000D02*
X141582000Y-108141000D01*
X140907000Y-122491000D02*
X141482000Y-122491000D01*
D10*
X135128000Y-119242000D02*
X135628000Y-119242000D01*
X135128000Y-119242000D02*
X134628000Y-119242000D01*
X135128000Y-121042000D02*
X135628000Y-121042000D01*
X135128000Y-121042000D02*
X134628000Y-121042000D01*
X132528000Y-119842000D02*
X132528000Y-120442000D01*
X137728000Y-119842000D02*
X137728000Y-120442000D01*
X127878000Y-105156000D02*
X127878000Y-104656000D01*
X127878000Y-105156000D02*
X127878000Y-105656000D01*
X129678000Y-105156000D02*
X129678000Y-104656000D01*
X129678000Y-105156000D02*
X129678000Y-105656000D01*
X128478000Y-107756000D02*
X129078000Y-107756000D01*
X128478000Y-102556000D02*
X129078000Y-102556000D01*
X117740000Y-105156000D02*
X117740000Y-105656000D01*
X117740000Y-105156000D02*
X117740000Y-104656000D01*
X115940000Y-105156000D02*
X115940000Y-105656000D01*
X115940000Y-105156000D02*
X115940000Y-104656000D01*
X117140000Y-102556000D02*
X116540000Y-102556000D01*
X117140000Y-107756000D02*
X116540000Y-107756000D01*
X110628000Y-105156000D02*
X110628000Y-105656000D01*
X110628000Y-105156000D02*
X110628000Y-104656000D01*
X108828000Y-105156000D02*
X108828000Y-105656000D01*
X108828000Y-105156000D02*
X108828000Y-104656000D01*
X110028000Y-102556000D02*
X109428000Y-102556000D01*
X110028000Y-107756000D02*
X109428000Y-107756000D01*
X160136000Y-114300000D02*
X160136000Y-113800000D01*
X160136000Y-114300000D02*
X160136000Y-114800000D01*
X161936000Y-114300000D02*
X161936000Y-113800000D01*
X161936000Y-114300000D02*
X161936000Y-114800000D01*
X160736000Y-116900000D02*
X161336000Y-116900000D01*
X160736000Y-111700000D02*
X161336000Y-111700000D01*
D13*
X136993333Y-126436380D02*
X136660000Y-125960190D01*
X136421904Y-126436380D02*
X136421904Y-125436380D01*
X136802857Y-125436380D01*
X136898095Y-125484000D01*
X136945714Y-125531619D01*
X136993333Y-125626857D01*
X136993333Y-125769714D01*
X136945714Y-125864952D01*
X136898095Y-125912571D01*
X136802857Y-125960190D01*
X136421904Y-125960190D01*
X137945714Y-126436380D02*
X137374285Y-126436380D01*
X137660000Y-126436380D02*
X137660000Y-125436380D01*
X137564761Y-125579238D01*
X137469523Y-125674476D01*
X137374285Y-125722095D01*
X118774380Y-124351333D02*
X119488666Y-124351333D01*
X119631523Y-124398952D01*
X119726761Y-124494190D01*
X119774380Y-124637047D01*
X119774380Y-124732285D01*
X118869619Y-123922761D02*
X118822000Y-123875142D01*
X118774380Y-123779904D01*
X118774380Y-123541809D01*
X118822000Y-123446571D01*
X118869619Y-123398952D01*
X118964857Y-123351333D01*
X119060095Y-123351333D01*
X119202952Y-123398952D01*
X119774380Y-123970380D01*
X119774380Y-123351333D01*
X138898380Y-105401904D02*
X138898380Y-104830476D01*
X139898380Y-105116190D02*
X138898380Y-105116190D01*
X139898380Y-104497142D02*
X138898380Y-104497142D01*
X138898380Y-104116190D01*
X138946000Y-104020952D01*
X138993619Y-103973333D01*
X139088857Y-103925714D01*
X139231714Y-103925714D01*
X139326952Y-103973333D01*
X139374571Y-104020952D01*
X139422190Y-104116190D01*
X139422190Y-104497142D01*
X138898380Y-103592380D02*
X138898380Y-102973333D01*
X139279333Y-103306666D01*
X139279333Y-103163809D01*
X139326952Y-103068571D01*
X139374571Y-103020952D01*
X139469809Y-102973333D01*
X139707904Y-102973333D01*
X139803142Y-103020952D01*
X139850761Y-103068571D01*
X139898380Y-103163809D01*
X139898380Y-103449523D01*
X139850761Y-103544761D01*
X139803142Y-103592380D01*
X145248380Y-105401904D02*
X145248380Y-104830476D01*
X146248380Y-105116190D02*
X145248380Y-105116190D01*
X146248380Y-104497142D02*
X145248380Y-104497142D01*
X145248380Y-104116190D01*
X145296000Y-104020952D01*
X145343619Y-103973333D01*
X145438857Y-103925714D01*
X145581714Y-103925714D01*
X145676952Y-103973333D01*
X145724571Y-104020952D01*
X145772190Y-104116190D01*
X145772190Y-104497142D01*
X145343619Y-103544761D02*
X145296000Y-103497142D01*
X145248380Y-103401904D01*
X145248380Y-103163809D01*
X145296000Y-103068571D01*
X145343619Y-103020952D01*
X145438857Y-102973333D01*
X145534095Y-102973333D01*
X145676952Y-103020952D01*
X146248380Y-103592380D01*
X146248380Y-102973333D01*
X151598380Y-105401904D02*
X151598380Y-104830476D01*
X152598380Y-105116190D02*
X151598380Y-105116190D01*
X152598380Y-104497142D02*
X151598380Y-104497142D01*
X151598380Y-104116190D01*
X151646000Y-104020952D01*
X151693619Y-103973333D01*
X151788857Y-103925714D01*
X151931714Y-103925714D01*
X152026952Y-103973333D01*
X152074571Y-104020952D01*
X152122190Y-104116190D01*
X152122190Y-104497142D01*
X152598380Y-102973333D02*
X152598380Y-103544761D01*
X152598380Y-103259047D02*
X151598380Y-103259047D01*
X151741238Y-103354285D01*
X151836476Y-103449523D01*
X151884095Y-103544761D01*
X132294380Y-112005809D02*
X133294380Y-111339142D01*
X132294380Y-111339142D02*
X133294380Y-112005809D01*
X132294380Y-111101047D02*
X132294380Y-110529619D01*
X133294380Y-110815333D02*
X132294380Y-110815333D01*
X133008666Y-110243904D02*
X133008666Y-109767714D01*
X133294380Y-110339142D02*
X132294380Y-110005809D01*
X133294380Y-109672476D01*
X133294380Y-108862952D02*
X133294380Y-109339142D01*
X132294380Y-109339142D01*
X133294380Y-108005809D02*
X133294380Y-108577238D01*
X133294380Y-108291523D02*
X132294380Y-108291523D01*
X132437238Y-108386761D01*
X132532476Y-108482000D01*
X132580095Y-108577238D01*
X108242761Y-125601333D02*
X108290380Y-125458476D01*
X108290380Y-125220380D01*
X108242761Y-125125142D01*
X108195142Y-125077523D01*
X108099904Y-125029904D01*
X108004666Y-125029904D01*
X107909428Y-125077523D01*
X107861809Y-125125142D01*
X107814190Y-125220380D01*
X107766571Y-125410857D01*
X107718952Y-125506095D01*
X107671333Y-125553714D01*
X107576095Y-125601333D01*
X107480857Y-125601333D01*
X107385619Y-125553714D01*
X107338000Y-125506095D01*
X107290380Y-125410857D01*
X107290380Y-125172761D01*
X107338000Y-125029904D01*
X107290380Y-124696571D02*
X108290380Y-124458476D01*
X107576095Y-124268000D01*
X108290380Y-124077523D01*
X107290380Y-123839428D01*
X108290380Y-122934666D02*
X108290380Y-123506095D01*
X108290380Y-123220380D02*
X107290380Y-123220380D01*
X107433238Y-123315619D01*
X107528476Y-123410857D01*
X107576095Y-123506095D01*
X115236666Y-109180380D02*
X115236666Y-109894666D01*
X115189047Y-110037523D01*
X115093809Y-110132761D01*
X114950952Y-110180380D01*
X114855714Y-110180380D01*
X116236666Y-110180380D02*
X115665238Y-110180380D01*
X115950952Y-110180380D02*
X115950952Y-109180380D01*
X115855714Y-109323238D01*
X115760476Y-109418476D01*
X115665238Y-109466095D01*
X140660380Y-124674190D02*
X139660380Y-124674190D01*
X140565142Y-123626571D02*
X140612761Y-123674190D01*
X140660380Y-123817047D01*
X140660380Y-123912285D01*
X140612761Y-124055142D01*
X140517523Y-124150380D01*
X140422285Y-124198000D01*
X140231809Y-124245619D01*
X140088952Y-124245619D01*
X139898476Y-124198000D01*
X139803238Y-124150380D01*
X139708000Y-124055142D01*
X139660380Y-123912285D01*
X139660380Y-123817047D01*
X139708000Y-123674190D01*
X139755619Y-123626571D01*
X140660380Y-122674190D02*
X140660380Y-123245619D01*
X140660380Y-122959904D02*
X139660380Y-122959904D01*
X139803238Y-123055142D01*
X139898476Y-123150380D01*
X139946095Y-123245619D01*
X132929333Y-118467142D02*
X132881714Y-118514761D01*
X132738857Y-118562380D01*
X132643619Y-118562380D01*
X132500761Y-118514761D01*
X132405523Y-118419523D01*
X132357904Y-118324285D01*
X132310285Y-118133809D01*
X132310285Y-117990952D01*
X132357904Y-117800476D01*
X132405523Y-117705238D01*
X132500761Y-117610000D01*
X132643619Y-117562380D01*
X132738857Y-117562380D01*
X132881714Y-117610000D01*
X132929333Y-117657619D01*
X133834095Y-117562380D02*
X133357904Y-117562380D01*
X133310285Y-118038571D01*
X133357904Y-117990952D01*
X133453142Y-117943333D01*
X133691238Y-117943333D01*
X133786476Y-117990952D01*
X133834095Y-118038571D01*
X133881714Y-118133809D01*
X133881714Y-118371904D01*
X133834095Y-118467142D01*
X133786476Y-118514761D01*
X133691238Y-118562380D01*
X133453142Y-118562380D01*
X133357904Y-118514761D01*
X133310285Y-118467142D01*
X127103142Y-105322666D02*
X127150761Y-105370285D01*
X127198380Y-105513142D01*
X127198380Y-105608380D01*
X127150761Y-105751238D01*
X127055523Y-105846476D01*
X126960285Y-105894095D01*
X126769809Y-105941714D01*
X126626952Y-105941714D01*
X126436476Y-105894095D01*
X126341238Y-105846476D01*
X126246000Y-105751238D01*
X126198380Y-105608380D01*
X126198380Y-105513142D01*
X126246000Y-105370285D01*
X126293619Y-105322666D01*
X126531714Y-104465523D02*
X127198380Y-104465523D01*
X126150761Y-104703619D02*
X126865047Y-104941714D01*
X126865047Y-104322666D01*
X115165142Y-105422666D02*
X115212761Y-105470285D01*
X115260380Y-105613142D01*
X115260380Y-105708380D01*
X115212761Y-105851238D01*
X115117523Y-105946476D01*
X115022285Y-105994095D01*
X114831809Y-106041714D01*
X114688952Y-106041714D01*
X114498476Y-105994095D01*
X114403238Y-105946476D01*
X114308000Y-105851238D01*
X114260380Y-105708380D01*
X114260380Y-105613142D01*
X114308000Y-105470285D01*
X114355619Y-105422666D01*
X114260380Y-105089333D02*
X114260380Y-104470285D01*
X114641333Y-104803619D01*
X114641333Y-104660761D01*
X114688952Y-104565523D01*
X114736571Y-104517904D01*
X114831809Y-104470285D01*
X115069904Y-104470285D01*
X115165142Y-104517904D01*
X115212761Y-104565523D01*
X115260380Y-104660761D01*
X115260380Y-104946476D01*
X115212761Y-105041714D01*
X115165142Y-105089333D01*
X108053142Y-105422666D02*
X108100761Y-105470285D01*
X108148380Y-105613142D01*
X108148380Y-105708380D01*
X108100761Y-105851238D01*
X108005523Y-105946476D01*
X107910285Y-105994095D01*
X107719809Y-106041714D01*
X107576952Y-106041714D01*
X107386476Y-105994095D01*
X107291238Y-105946476D01*
X107196000Y-105851238D01*
X107148380Y-105708380D01*
X107148380Y-105613142D01*
X107196000Y-105470285D01*
X107243619Y-105422666D01*
X107243619Y-105041714D02*
X107196000Y-104994095D01*
X107148380Y-104898857D01*
X107148380Y-104660761D01*
X107196000Y-104565523D01*
X107243619Y-104517904D01*
X107338857Y-104470285D01*
X107434095Y-104470285D01*
X107576952Y-104517904D01*
X108148380Y-105089333D01*
X108148380Y-104470285D01*
X159361142Y-114720666D02*
X159408761Y-114768285D01*
X159456380Y-114911142D01*
X159456380Y-115006380D01*
X159408761Y-115149238D01*
X159313523Y-115244476D01*
X159218285Y-115292095D01*
X159027809Y-115339714D01*
X158884952Y-115339714D01*
X158694476Y-115292095D01*
X158599238Y-115244476D01*
X158504000Y-115149238D01*
X158456380Y-115006380D01*
X158456380Y-114911142D01*
X158504000Y-114768285D01*
X158551619Y-114720666D01*
X159456380Y-113768285D02*
X159456380Y-114339714D01*
X159456380Y-114054000D02*
X158456380Y-114054000D01*
X158599238Y-114149238D01*
X158694476Y-114244476D01*
X158742095Y-114339714D01*
M02*
