G04 #@! TF.GenerationSoftware,KiCad,Pcbnew,(5.1.2)-2*
G04 #@! TF.CreationDate,2019-06-19T15:06:05-04:00*
G04 #@! TF.ProjectId,binary_counter,62696e61-7279-45f6-936f-756e7465722e,rev?*
G04 #@! TF.SameCoordinates,Original*
G04 #@! TF.FileFunction,Soldermask,Top*
G04 #@! TF.FilePolarity,Negative*
%FSLAX46Y46*%
G04 Gerber Fmt 4.6, Leading zero omitted, Abs format (unit mm)*
G04 Created by KiCad (PCBNEW (5.1.2)-2) date 2019-06-19 15:06:05*
%MOMM*%
%LPD*%
G04 APERTURE LIST*
%ADD10C,0.100000*%
G04 APERTURE END LIST*
D10*
G36*
X161230943Y-121231205D02*
G01*
X161585925Y-121301815D01*
X162087503Y-121509576D01*
X162538912Y-121811197D01*
X162922803Y-122195088D01*
X163224424Y-122646497D01*
X163432185Y-123148075D01*
X163538100Y-123680548D01*
X163538100Y-124223452D01*
X163432185Y-124755925D01*
X163224424Y-125257503D01*
X162922803Y-125708912D01*
X162538912Y-126092803D01*
X162087503Y-126394424D01*
X161585925Y-126602185D01*
X161230943Y-126672795D01*
X161053453Y-126708100D01*
X160510547Y-126708100D01*
X160333057Y-126672795D01*
X159978075Y-126602185D01*
X159476497Y-126394424D01*
X159025088Y-126092803D01*
X158641197Y-125708912D01*
X158339576Y-125257503D01*
X158131815Y-124755925D01*
X158025900Y-124223452D01*
X158025900Y-123680548D01*
X158131815Y-123148075D01*
X158339576Y-122646497D01*
X158641197Y-122195088D01*
X159025088Y-121811197D01*
X159476497Y-121509576D01*
X159978075Y-121301815D01*
X160333057Y-121231205D01*
X160510547Y-121195900D01*
X161053453Y-121195900D01*
X161230943Y-121231205D01*
X161230943Y-121231205D01*
G37*
G36*
X103826943Y-121231205D02*
G01*
X104181925Y-121301815D01*
X104683503Y-121509576D01*
X105134912Y-121811197D01*
X105518803Y-122195088D01*
X105820424Y-122646497D01*
X106028185Y-123148075D01*
X106134100Y-123680548D01*
X106134100Y-124223452D01*
X106028185Y-124755925D01*
X105820424Y-125257503D01*
X105518803Y-125708912D01*
X105134912Y-126092803D01*
X104683503Y-126394424D01*
X104181925Y-126602185D01*
X103826943Y-126672795D01*
X103649453Y-126708100D01*
X103106547Y-126708100D01*
X102929057Y-126672795D01*
X102574075Y-126602185D01*
X102072497Y-126394424D01*
X101621088Y-126092803D01*
X101237197Y-125708912D01*
X100935576Y-125257503D01*
X100727815Y-124755925D01*
X100621900Y-124223452D01*
X100621900Y-123680548D01*
X100727815Y-123148075D01*
X100935576Y-122646497D01*
X101237197Y-122195088D01*
X101621088Y-121811197D01*
X102072497Y-121509576D01*
X102574075Y-121301815D01*
X102929057Y-121231205D01*
X103106547Y-121195900D01*
X103649453Y-121195900D01*
X103826943Y-121231205D01*
X103826943Y-121231205D01*
G37*
G36*
X151515552Y-125550331D02*
G01*
X151597627Y-125584328D01*
X151597629Y-125584329D01*
X151634813Y-125609175D01*
X151671494Y-125633684D01*
X151734314Y-125696504D01*
X151783670Y-125770369D01*
X151783672Y-125770373D01*
X151817669Y-125852448D01*
X151835000Y-125939579D01*
X151835000Y-126028421D01*
X151817669Y-126115552D01*
X151783672Y-126197627D01*
X151734316Y-126271494D01*
X151671496Y-126334314D01*
X151597629Y-126383671D01*
X151597628Y-126383672D01*
X151597627Y-126383672D01*
X151515552Y-126417669D01*
X151428421Y-126435000D01*
X151339579Y-126435000D01*
X151252448Y-126417669D01*
X151170373Y-126383672D01*
X151170372Y-126383672D01*
X151170371Y-126383671D01*
X151096504Y-126334314D01*
X151033686Y-126271496D01*
X151033685Y-126271494D01*
X150984328Y-126197627D01*
X150950331Y-126115552D01*
X150933000Y-126028421D01*
X150933000Y-125939579D01*
X150950331Y-125852448D01*
X150984328Y-125770373D01*
X150984331Y-125770369D01*
X151033686Y-125696504D01*
X151096504Y-125633686D01*
X151096507Y-125633684D01*
X151133187Y-125609175D01*
X151170371Y-125584329D01*
X151170373Y-125584328D01*
X151252448Y-125550331D01*
X151339579Y-125533000D01*
X151428421Y-125533000D01*
X151515552Y-125550331D01*
X151515552Y-125550331D01*
G37*
G36*
X145419548Y-125550331D02*
G01*
X145501623Y-125584328D01*
X145501625Y-125584329D01*
X145538809Y-125609175D01*
X145575490Y-125633684D01*
X145638310Y-125696504D01*
X145687666Y-125770369D01*
X145687668Y-125770373D01*
X145721665Y-125852448D01*
X145738996Y-125939579D01*
X145738996Y-126028421D01*
X145721665Y-126115552D01*
X145687668Y-126197627D01*
X145638312Y-126271494D01*
X145575492Y-126334314D01*
X145501625Y-126383671D01*
X145501624Y-126383672D01*
X145501623Y-126383672D01*
X145419548Y-126417669D01*
X145332417Y-126435000D01*
X145243575Y-126435000D01*
X145156444Y-126417669D01*
X145074369Y-126383672D01*
X145074368Y-126383672D01*
X145074367Y-126383671D01*
X145000500Y-126334314D01*
X144937682Y-126271496D01*
X144937681Y-126271494D01*
X144888324Y-126197627D01*
X144854327Y-126115552D01*
X144836996Y-126028421D01*
X144836996Y-125939579D01*
X144854327Y-125852448D01*
X144888324Y-125770373D01*
X144888327Y-125770369D01*
X144937682Y-125696504D01*
X145000500Y-125633686D01*
X145000503Y-125633684D01*
X145037183Y-125609175D01*
X145074367Y-125584329D01*
X145074369Y-125584328D01*
X145156444Y-125550331D01*
X145243575Y-125533000D01*
X145332417Y-125533000D01*
X145419548Y-125550331D01*
X145419548Y-125550331D01*
G37*
G36*
X149483552Y-125550329D02*
G01*
X149565627Y-125584326D01*
X149565629Y-125584327D01*
X149602813Y-125609173D01*
X149639495Y-125633683D01*
X149702315Y-125696503D01*
X149702316Y-125696505D01*
X149751670Y-125770367D01*
X149751672Y-125770371D01*
X149785669Y-125852446D01*
X149803000Y-125939577D01*
X149803000Y-126028419D01*
X149785669Y-126115550D01*
X149751673Y-126197623D01*
X149751671Y-126197627D01*
X149726825Y-126234811D01*
X149702315Y-126271493D01*
X149639495Y-126334313D01*
X149639492Y-126334315D01*
X149565629Y-126383669D01*
X149565628Y-126383670D01*
X149565627Y-126383670D01*
X149483552Y-126417667D01*
X149396421Y-126434998D01*
X149307579Y-126434998D01*
X149220448Y-126417667D01*
X149138373Y-126383670D01*
X149138372Y-126383670D01*
X149138371Y-126383669D01*
X149064508Y-126334315D01*
X149064505Y-126334313D01*
X149001685Y-126271493D01*
X148977175Y-126234811D01*
X148952329Y-126197627D01*
X148952327Y-126197623D01*
X148918331Y-126115550D01*
X148901000Y-126028419D01*
X148901000Y-125939577D01*
X148918331Y-125852446D01*
X148952328Y-125770371D01*
X148952331Y-125770367D01*
X149001684Y-125696505D01*
X149001685Y-125696503D01*
X149064505Y-125633683D01*
X149101187Y-125609173D01*
X149138371Y-125584327D01*
X149138373Y-125584326D01*
X149220448Y-125550329D01*
X149307579Y-125532998D01*
X149396421Y-125532998D01*
X149483552Y-125550329D01*
X149483552Y-125550329D01*
G37*
G36*
X147451552Y-125550325D02*
G01*
X147533627Y-125584322D01*
X147533629Y-125584323D01*
X147570813Y-125609169D01*
X147607495Y-125633679D01*
X147670315Y-125696499D01*
X147719672Y-125770367D01*
X147753669Y-125852442D01*
X147771000Y-125939573D01*
X147771000Y-126028415D01*
X147753669Y-126115546D01*
X147719672Y-126197621D01*
X147719671Y-126197623D01*
X147719668Y-126197627D01*
X147670315Y-126271489D01*
X147607495Y-126334309D01*
X147607486Y-126334315D01*
X147533629Y-126383665D01*
X147533628Y-126383666D01*
X147533627Y-126383666D01*
X147451552Y-126417663D01*
X147364421Y-126434994D01*
X147275579Y-126434994D01*
X147188448Y-126417663D01*
X147106373Y-126383666D01*
X147106372Y-126383666D01*
X147106371Y-126383665D01*
X147032514Y-126334315D01*
X147032505Y-126334309D01*
X146969685Y-126271489D01*
X146920332Y-126197627D01*
X146920329Y-126197623D01*
X146920328Y-126197621D01*
X146886331Y-126115546D01*
X146869000Y-126028415D01*
X146869000Y-125939573D01*
X146886331Y-125852442D01*
X146920328Y-125770367D01*
X146969685Y-125696499D01*
X147032505Y-125633679D01*
X147069187Y-125609169D01*
X147106371Y-125584323D01*
X147106373Y-125584322D01*
X147188448Y-125550325D01*
X147275579Y-125532994D01*
X147364421Y-125532994D01*
X147451552Y-125550325D01*
X147451552Y-125550325D01*
G37*
G36*
X110235740Y-124476626D02*
G01*
X110284136Y-124486253D01*
X110321902Y-124501896D01*
X110375311Y-124524019D01*
X110416062Y-124551248D01*
X110457369Y-124578848D01*
X110527152Y-124648631D01*
X110548449Y-124680505D01*
X110581981Y-124730689D01*
X110619747Y-124821865D01*
X110639000Y-124918655D01*
X110639000Y-125017345D01*
X110619747Y-125114135D01*
X110581981Y-125205311D01*
X110581980Y-125205312D01*
X110527152Y-125287369D01*
X110457369Y-125357152D01*
X110416062Y-125384752D01*
X110375311Y-125411981D01*
X110321902Y-125434104D01*
X110284136Y-125449747D01*
X110235740Y-125459374D01*
X110187345Y-125469000D01*
X110088655Y-125469000D01*
X110040260Y-125459374D01*
X109991864Y-125449747D01*
X109954098Y-125434104D01*
X109900689Y-125411981D01*
X109859938Y-125384752D01*
X109818631Y-125357152D01*
X109748848Y-125287369D01*
X109694020Y-125205312D01*
X109694019Y-125205311D01*
X109656253Y-125114135D01*
X109637000Y-125017345D01*
X109637000Y-124918655D01*
X109656253Y-124821865D01*
X109694019Y-124730689D01*
X109727551Y-124680505D01*
X109748848Y-124648631D01*
X109818631Y-124578848D01*
X109859938Y-124551248D01*
X109900689Y-124524019D01*
X109954098Y-124501896D01*
X109991864Y-124486253D01*
X110040260Y-124476626D01*
X110088655Y-124467000D01*
X110187345Y-124467000D01*
X110235740Y-124476626D01*
X110235740Y-124476626D01*
G37*
G36*
X117035740Y-124476626D02*
G01*
X117084136Y-124486253D01*
X117121902Y-124501896D01*
X117175311Y-124524019D01*
X117216062Y-124551248D01*
X117257369Y-124578848D01*
X117327152Y-124648631D01*
X117348449Y-124680505D01*
X117381981Y-124730689D01*
X117419747Y-124821865D01*
X117439000Y-124918655D01*
X117439000Y-125017345D01*
X117419747Y-125114135D01*
X117381981Y-125205311D01*
X117381980Y-125205312D01*
X117327152Y-125287369D01*
X117257369Y-125357152D01*
X117216062Y-125384752D01*
X117175311Y-125411981D01*
X117121902Y-125434104D01*
X117084136Y-125449747D01*
X117035740Y-125459374D01*
X116987345Y-125469000D01*
X116888655Y-125469000D01*
X116840260Y-125459374D01*
X116791864Y-125449747D01*
X116754098Y-125434104D01*
X116700689Y-125411981D01*
X116659938Y-125384752D01*
X116618631Y-125357152D01*
X116548848Y-125287369D01*
X116494020Y-125205312D01*
X116494019Y-125205311D01*
X116456253Y-125114135D01*
X116437000Y-125017345D01*
X116437000Y-124918655D01*
X116456253Y-124821865D01*
X116494019Y-124730689D01*
X116527551Y-124680505D01*
X116548848Y-124648631D01*
X116618631Y-124578848D01*
X116659938Y-124551248D01*
X116700689Y-124524019D01*
X116754098Y-124501896D01*
X116791864Y-124486253D01*
X116840260Y-124476626D01*
X116888655Y-124467000D01*
X116987345Y-124467000D01*
X117035740Y-124476626D01*
X117035740Y-124476626D01*
G37*
G36*
X146435560Y-124534335D02*
G01*
X146517635Y-124568332D01*
X146517637Y-124568333D01*
X146554821Y-124593179D01*
X146591499Y-124617686D01*
X146591504Y-124617690D01*
X146654322Y-124680508D01*
X146703678Y-124754373D01*
X146703680Y-124754377D01*
X146737677Y-124836452D01*
X146755008Y-124923583D01*
X146755008Y-125012425D01*
X146737677Y-125099556D01*
X146703680Y-125181631D01*
X146654326Y-125255495D01*
X146654322Y-125255500D01*
X146591504Y-125318318D01*
X146517637Y-125367675D01*
X146517636Y-125367676D01*
X146517635Y-125367676D01*
X146435560Y-125401673D01*
X146348429Y-125419004D01*
X146259587Y-125419004D01*
X146172456Y-125401673D01*
X146090381Y-125367676D01*
X146090380Y-125367676D01*
X146090379Y-125367675D01*
X146016512Y-125318318D01*
X145953694Y-125255500D01*
X145953691Y-125255495D01*
X145904336Y-125181631D01*
X145870339Y-125099556D01*
X145853008Y-125012425D01*
X145853008Y-124923583D01*
X145870339Y-124836452D01*
X145904336Y-124754377D01*
X145904339Y-124754373D01*
X145953694Y-124680508D01*
X146016512Y-124617690D01*
X146016518Y-124617686D01*
X146053195Y-124593179D01*
X146090379Y-124568333D01*
X146090381Y-124568332D01*
X146172456Y-124534335D01*
X146259587Y-124517004D01*
X146348429Y-124517004D01*
X146435560Y-124534335D01*
X146435560Y-124534335D01*
G37*
G36*
X148467552Y-124534331D02*
G01*
X148549627Y-124568328D01*
X148549629Y-124568329D01*
X148586813Y-124593175D01*
X148623495Y-124617685D01*
X148686315Y-124680505D01*
X148735672Y-124754373D01*
X148769669Y-124836448D01*
X148787000Y-124923579D01*
X148787000Y-125012421D01*
X148769669Y-125099552D01*
X148735672Y-125181627D01*
X148735671Y-125181629D01*
X148735668Y-125181633D01*
X148686315Y-125255495D01*
X148623495Y-125318315D01*
X148623489Y-125318319D01*
X148549629Y-125367671D01*
X148549628Y-125367672D01*
X148549627Y-125367672D01*
X148467552Y-125401669D01*
X148380421Y-125419000D01*
X148291579Y-125419000D01*
X148204448Y-125401669D01*
X148122373Y-125367672D01*
X148122372Y-125367672D01*
X148122371Y-125367671D01*
X148048511Y-125318319D01*
X148048505Y-125318315D01*
X147985685Y-125255495D01*
X147936332Y-125181633D01*
X147936329Y-125181629D01*
X147936328Y-125181627D01*
X147902331Y-125099552D01*
X147885000Y-125012421D01*
X147885000Y-124923579D01*
X147902331Y-124836448D01*
X147936328Y-124754373D01*
X147985685Y-124680505D01*
X148048505Y-124617685D01*
X148085187Y-124593175D01*
X148122371Y-124568329D01*
X148122373Y-124568328D01*
X148204448Y-124534331D01*
X148291579Y-124517000D01*
X148380421Y-124517000D01*
X148467552Y-124534331D01*
X148467552Y-124534331D01*
G37*
G36*
X152531552Y-124534331D02*
G01*
X152613627Y-124568328D01*
X152613629Y-124568329D01*
X152650813Y-124593175D01*
X152687495Y-124617685D01*
X152750315Y-124680505D01*
X152799672Y-124754373D01*
X152833669Y-124836448D01*
X152851000Y-124923579D01*
X152851000Y-125012421D01*
X152833669Y-125099552D01*
X152799672Y-125181627D01*
X152799671Y-125181629D01*
X152799668Y-125181633D01*
X152750315Y-125255495D01*
X152687495Y-125318315D01*
X152687489Y-125318319D01*
X152613629Y-125367671D01*
X152613628Y-125367672D01*
X152613627Y-125367672D01*
X152531552Y-125401669D01*
X152444421Y-125419000D01*
X152355579Y-125419000D01*
X152268448Y-125401669D01*
X152186373Y-125367672D01*
X152186372Y-125367672D01*
X152186371Y-125367671D01*
X152112511Y-125318319D01*
X152112505Y-125318315D01*
X152049685Y-125255495D01*
X152000332Y-125181633D01*
X152000329Y-125181629D01*
X152000328Y-125181627D01*
X151966331Y-125099552D01*
X151949000Y-125012421D01*
X151949000Y-124923579D01*
X151966331Y-124836448D01*
X152000328Y-124754373D01*
X152049685Y-124680505D01*
X152112505Y-124617685D01*
X152149187Y-124593175D01*
X152186371Y-124568329D01*
X152186373Y-124568328D01*
X152268448Y-124534331D01*
X152355579Y-124517000D01*
X152444421Y-124517000D01*
X152531552Y-124534331D01*
X152531552Y-124534331D01*
G37*
G36*
X150499552Y-124534331D02*
G01*
X150581627Y-124568328D01*
X150581629Y-124568329D01*
X150618813Y-124593175D01*
X150655495Y-124617685D01*
X150718315Y-124680505D01*
X150767672Y-124754373D01*
X150801669Y-124836448D01*
X150819000Y-124923579D01*
X150819000Y-125012421D01*
X150801669Y-125099552D01*
X150767672Y-125181627D01*
X150767671Y-125181629D01*
X150767668Y-125181633D01*
X150718315Y-125255495D01*
X150655495Y-125318315D01*
X150655489Y-125318319D01*
X150581629Y-125367671D01*
X150581628Y-125367672D01*
X150581627Y-125367672D01*
X150499552Y-125401669D01*
X150412421Y-125419000D01*
X150323579Y-125419000D01*
X150236448Y-125401669D01*
X150154373Y-125367672D01*
X150154372Y-125367672D01*
X150154371Y-125367671D01*
X150080511Y-125318319D01*
X150080505Y-125318315D01*
X150017685Y-125255495D01*
X149968332Y-125181633D01*
X149968329Y-125181629D01*
X149968328Y-125181627D01*
X149934331Y-125099552D01*
X149917000Y-125012421D01*
X149917000Y-124923579D01*
X149934331Y-124836448D01*
X149968328Y-124754373D01*
X150017685Y-124680505D01*
X150080505Y-124617685D01*
X150117187Y-124593175D01*
X150154371Y-124568329D01*
X150154373Y-124568328D01*
X150236448Y-124534331D01*
X150323579Y-124517000D01*
X150412421Y-124517000D01*
X150499552Y-124534331D01*
X150499552Y-124534331D01*
G37*
G36*
X137729000Y-124903000D02*
G01*
X136127000Y-124903000D01*
X136127000Y-123001000D01*
X137729000Y-123001000D01*
X137729000Y-124903000D01*
X137729000Y-124903000D01*
G37*
G36*
X134129000Y-124903000D02*
G01*
X132527000Y-124903000D01*
X132527000Y-123001000D01*
X134129000Y-123001000D01*
X134129000Y-124903000D01*
X134129000Y-124903000D01*
G37*
G36*
X154408000Y-123817000D02*
G01*
X141756000Y-123817000D01*
X141756000Y-122215000D01*
X154408000Y-122215000D01*
X154408000Y-123817000D01*
X154408000Y-123817000D01*
G37*
G36*
X114189000Y-123519000D02*
G01*
X112887000Y-123519000D01*
X112887000Y-120917000D01*
X114189000Y-120917000D01*
X114189000Y-123519000D01*
X114189000Y-123519000D01*
G37*
G36*
X116689000Y-123519000D02*
G01*
X115387000Y-123519000D01*
X115387000Y-120917000D01*
X116689000Y-120917000D01*
X116689000Y-123519000D01*
X116689000Y-123519000D01*
G37*
G36*
X111689000Y-123519000D02*
G01*
X110387000Y-123519000D01*
X110387000Y-120917000D01*
X111689000Y-120917000D01*
X111689000Y-123519000D01*
X111689000Y-123519000D01*
G37*
G36*
X130923000Y-121749000D02*
G01*
X126166000Y-121749000D01*
X126166000Y-120567000D01*
X130923000Y-120567000D01*
X130923000Y-121749000D01*
X130923000Y-121749000D01*
G37*
G36*
X124278000Y-121749000D02*
G01*
X119521000Y-121749000D01*
X119521000Y-120567000D01*
X124278000Y-120567000D01*
X124278000Y-121749000D01*
X124278000Y-121749000D01*
G37*
G36*
X156583000Y-121642000D02*
G01*
X154981000Y-121642000D01*
X154981000Y-108990000D01*
X156583000Y-108990000D01*
X156583000Y-121642000D01*
X156583000Y-121642000D01*
G37*
G36*
X141183000Y-121642000D02*
G01*
X139581000Y-121642000D01*
X139581000Y-108990000D01*
X141183000Y-108990000D01*
X141183000Y-121642000D01*
X141183000Y-121642000D01*
G37*
G36*
X137729000Y-121093000D02*
G01*
X136127000Y-121093000D01*
X136127000Y-119191000D01*
X137729000Y-119191000D01*
X137729000Y-121093000D01*
X137729000Y-121093000D01*
G37*
G36*
X134129000Y-121093000D02*
G01*
X132527000Y-121093000D01*
X132527000Y-119191000D01*
X134129000Y-119191000D01*
X134129000Y-121093000D01*
X134129000Y-121093000D01*
G37*
G36*
X158373552Y-119438334D02*
G01*
X158455627Y-119472331D01*
X158455629Y-119472332D01*
X158492813Y-119497178D01*
X158529495Y-119521688D01*
X158592315Y-119584508D01*
X158641672Y-119658376D01*
X158675669Y-119740451D01*
X158693000Y-119827582D01*
X158693000Y-119916424D01*
X158675669Y-120003555D01*
X158659744Y-120042000D01*
X158641671Y-120085632D01*
X158592314Y-120159499D01*
X158529496Y-120222317D01*
X158455629Y-120271674D01*
X158455628Y-120271675D01*
X158455627Y-120271675D01*
X158373552Y-120305672D01*
X158286421Y-120323003D01*
X158197579Y-120323003D01*
X158110448Y-120305672D01*
X158028373Y-120271675D01*
X158028372Y-120271675D01*
X158028371Y-120271674D01*
X157954504Y-120222317D01*
X157891686Y-120159499D01*
X157842329Y-120085632D01*
X157824256Y-120042000D01*
X157808331Y-120003555D01*
X157791000Y-119916424D01*
X157791000Y-119827582D01*
X157808331Y-119740451D01*
X157842328Y-119658376D01*
X157891685Y-119584508D01*
X157954505Y-119521688D01*
X157991187Y-119497178D01*
X158028371Y-119472332D01*
X158028373Y-119472331D01*
X158110448Y-119438334D01*
X158197579Y-119421003D01*
X158286421Y-119421003D01*
X158373552Y-119438334D01*
X158373552Y-119438334D01*
G37*
G36*
X130923000Y-119209000D02*
G01*
X126166000Y-119209000D01*
X126166000Y-118027000D01*
X130923000Y-118027000D01*
X130923000Y-119209000D01*
X130923000Y-119209000D01*
G37*
G36*
X124278000Y-119209000D02*
G01*
X119521000Y-119209000D01*
X119521000Y-118027000D01*
X124278000Y-118027000D01*
X124278000Y-119209000D01*
X124278000Y-119209000D01*
G37*
G36*
X142117552Y-117676331D02*
G01*
X142186764Y-117705000D01*
X142199629Y-117710329D01*
X142236813Y-117735175D01*
X142273495Y-117759685D01*
X142336315Y-117822505D01*
X142385672Y-117896373D01*
X142419669Y-117978448D01*
X142437000Y-118065579D01*
X142437000Y-118154421D01*
X142419669Y-118241552D01*
X142385672Y-118323627D01*
X142385671Y-118323629D01*
X142336314Y-118397496D01*
X142273496Y-118460314D01*
X142199629Y-118509671D01*
X142199628Y-118509672D01*
X142199627Y-118509672D01*
X142117552Y-118543669D01*
X142030421Y-118561000D01*
X141941579Y-118561000D01*
X141854448Y-118543669D01*
X141772373Y-118509672D01*
X141772372Y-118509672D01*
X141772371Y-118509671D01*
X141698504Y-118460314D01*
X141635686Y-118397496D01*
X141586329Y-118323629D01*
X141586328Y-118323627D01*
X141552331Y-118241552D01*
X141535000Y-118154421D01*
X141535000Y-118065579D01*
X141552331Y-117978448D01*
X141586328Y-117896373D01*
X141635685Y-117822505D01*
X141698505Y-117759685D01*
X141735187Y-117735175D01*
X141772371Y-117710329D01*
X141785236Y-117705000D01*
X141854448Y-117676331D01*
X141941579Y-117659000D01*
X142030421Y-117659000D01*
X142117552Y-117676331D01*
X142117552Y-117676331D01*
G37*
G36*
X132465552Y-117676331D02*
G01*
X132534764Y-117705000D01*
X132547629Y-117710329D01*
X132584813Y-117735175D01*
X132621495Y-117759685D01*
X132684315Y-117822505D01*
X132733672Y-117896373D01*
X132767669Y-117978448D01*
X132785000Y-118065579D01*
X132785000Y-118154421D01*
X132767669Y-118241552D01*
X132733672Y-118323627D01*
X132733671Y-118323629D01*
X132684314Y-118397496D01*
X132621496Y-118460314D01*
X132547629Y-118509671D01*
X132547628Y-118509672D01*
X132547627Y-118509672D01*
X132465552Y-118543669D01*
X132378421Y-118561000D01*
X132289579Y-118561000D01*
X132202448Y-118543669D01*
X132120373Y-118509672D01*
X132120372Y-118509672D01*
X132120371Y-118509671D01*
X132046504Y-118460314D01*
X131983686Y-118397496D01*
X131934329Y-118323629D01*
X131934328Y-118323627D01*
X131900331Y-118241552D01*
X131883000Y-118154421D01*
X131883000Y-118065579D01*
X131900331Y-117978448D01*
X131934328Y-117896373D01*
X131983685Y-117822505D01*
X132046505Y-117759685D01*
X132083187Y-117735175D01*
X132120371Y-117710329D01*
X132133236Y-117705000D01*
X132202448Y-117676331D01*
X132289579Y-117659000D01*
X132378421Y-117659000D01*
X132465552Y-117676331D01*
X132465552Y-117676331D01*
G37*
G36*
X105045985Y-114247860D02*
G01*
X105158748Y-114270290D01*
X105290741Y-114324963D01*
X105477408Y-114402283D01*
X105764196Y-114593909D01*
X106008091Y-114837804D01*
X106199717Y-115124592D01*
X106232400Y-115203496D01*
X106326221Y-115430000D01*
X106331710Y-115443253D01*
X106399000Y-115781540D01*
X106399000Y-116126460D01*
X106331710Y-116464747D01*
X106199717Y-116783408D01*
X106008091Y-117070196D01*
X105764196Y-117314091D01*
X105477408Y-117505717D01*
X105290741Y-117583037D01*
X105158748Y-117637710D01*
X105051716Y-117659000D01*
X104820460Y-117705000D01*
X104475540Y-117705000D01*
X104244284Y-117659000D01*
X104137252Y-117637710D01*
X104005259Y-117583037D01*
X103818592Y-117505717D01*
X103531804Y-117314091D01*
X103287909Y-117070196D01*
X103096283Y-116783408D01*
X102964290Y-116464747D01*
X102897000Y-116126460D01*
X102897000Y-115781540D01*
X102964290Y-115443253D01*
X102969780Y-115430000D01*
X103063600Y-115203496D01*
X103096283Y-115124592D01*
X103287909Y-114837804D01*
X103531804Y-114593909D01*
X103818592Y-114402283D01*
X104005259Y-114324963D01*
X104137252Y-114270290D01*
X104250015Y-114247860D01*
X104475540Y-114203000D01*
X104820460Y-114203000D01*
X105045985Y-114247860D01*
X105045985Y-114247860D01*
G37*
G36*
X136433000Y-117533000D02*
G01*
X134331000Y-117533000D01*
X134331000Y-111931000D01*
X136433000Y-111931000D01*
X136433000Y-117533000D01*
X136433000Y-117533000D01*
G37*
G36*
X161987000Y-116901000D02*
G01*
X160085000Y-116901000D01*
X160085000Y-115299000D01*
X161987000Y-115299000D01*
X161987000Y-116901000D01*
X161987000Y-116901000D01*
G37*
G36*
X130923000Y-116669000D02*
G01*
X126166000Y-116669000D01*
X126166000Y-115487000D01*
X130923000Y-115487000D01*
X130923000Y-116669000D01*
X130923000Y-116669000D01*
G37*
G36*
X124278000Y-116669000D02*
G01*
X119521000Y-116669000D01*
X119521000Y-115487000D01*
X124278000Y-115487000D01*
X124278000Y-116669000D01*
X124278000Y-116669000D01*
G37*
G36*
X118054000Y-115430000D02*
G01*
X112622000Y-115430000D01*
X112622000Y-113678000D01*
X118054000Y-113678000D01*
X118054000Y-115430000D01*
X118054000Y-115430000D01*
G37*
G36*
X158519552Y-114482331D02*
G01*
X158601627Y-114516328D01*
X158601629Y-114516329D01*
X158638813Y-114541175D01*
X158675495Y-114565685D01*
X158738315Y-114628505D01*
X158787672Y-114702373D01*
X158821669Y-114784448D01*
X158839000Y-114871579D01*
X158839000Y-114960421D01*
X158821669Y-115047552D01*
X158787672Y-115129627D01*
X158787671Y-115129629D01*
X158738314Y-115203496D01*
X158675496Y-115266314D01*
X158601629Y-115315671D01*
X158601628Y-115315672D01*
X158601627Y-115315672D01*
X158519552Y-115349669D01*
X158432421Y-115367000D01*
X158343579Y-115367000D01*
X158256448Y-115349669D01*
X158174373Y-115315672D01*
X158174372Y-115315672D01*
X158174371Y-115315671D01*
X158100504Y-115266314D01*
X158037686Y-115203496D01*
X157988329Y-115129629D01*
X157988328Y-115129627D01*
X157954331Y-115047552D01*
X157937000Y-114960421D01*
X157937000Y-114871579D01*
X157954331Y-114784448D01*
X157988328Y-114702373D01*
X158037685Y-114628505D01*
X158100505Y-114565685D01*
X158137187Y-114541175D01*
X158174371Y-114516329D01*
X158174373Y-114516328D01*
X158256448Y-114482331D01*
X158343579Y-114465000D01*
X158432421Y-114465000D01*
X158519552Y-114482331D01*
X158519552Y-114482331D01*
G37*
G36*
X161987000Y-113301000D02*
G01*
X160085000Y-113301000D01*
X160085000Y-111699000D01*
X161987000Y-111699000D01*
X161987000Y-113301000D01*
X161987000Y-113301000D01*
G37*
G36*
X118054000Y-112890000D02*
G01*
X112622000Y-112890000D01*
X112622000Y-111138000D01*
X118054000Y-111138000D01*
X118054000Y-112890000D01*
X118054000Y-112890000D01*
G37*
G36*
X105045985Y-108907860D02*
G01*
X105158748Y-108930290D01*
X105290741Y-108984963D01*
X105477408Y-109062283D01*
X105764196Y-109253909D01*
X106008091Y-109497804D01*
X106199717Y-109784592D01*
X106331710Y-110103253D01*
X106399000Y-110441540D01*
X106399000Y-110786460D01*
X106363584Y-110964505D01*
X106331710Y-111124748D01*
X106277037Y-111256741D01*
X106199717Y-111443408D01*
X106008091Y-111730196D01*
X105764196Y-111974091D01*
X105477408Y-112165717D01*
X105290741Y-112243037D01*
X105158748Y-112297710D01*
X105045985Y-112320140D01*
X104820460Y-112365000D01*
X104475540Y-112365000D01*
X104250015Y-112320140D01*
X104137252Y-112297710D01*
X104005259Y-112243037D01*
X103818592Y-112165717D01*
X103531804Y-111974091D01*
X103287909Y-111730196D01*
X103096283Y-111443408D01*
X103018963Y-111256741D01*
X102964290Y-111124748D01*
X102932416Y-110964505D01*
X102897000Y-110786460D01*
X102897000Y-110441540D01*
X102964290Y-110103253D01*
X103096283Y-109784592D01*
X103287909Y-109497804D01*
X103531804Y-109253909D01*
X103818592Y-109062283D01*
X104005259Y-108984963D01*
X104137252Y-108930290D01*
X104250015Y-108907860D01*
X104475540Y-108863000D01*
X104820460Y-108863000D01*
X105045985Y-108907860D01*
X105045985Y-108907860D01*
G37*
G36*
X138561552Y-110818331D02*
G01*
X138643627Y-110852328D01*
X138643629Y-110852329D01*
X138680813Y-110877175D01*
X138717495Y-110901685D01*
X138780315Y-110964505D01*
X138829672Y-111038373D01*
X138863669Y-111120448D01*
X138881000Y-111207579D01*
X138881000Y-111296421D01*
X138863669Y-111383552D01*
X138838875Y-111443409D01*
X138829671Y-111465629D01*
X138780314Y-111539496D01*
X138717496Y-111602314D01*
X138643629Y-111651671D01*
X138643628Y-111651672D01*
X138643627Y-111651672D01*
X138561552Y-111685669D01*
X138474421Y-111703000D01*
X138385579Y-111703000D01*
X138298448Y-111685669D01*
X138216373Y-111651672D01*
X138216372Y-111651672D01*
X138216371Y-111651671D01*
X138142504Y-111602314D01*
X138079686Y-111539496D01*
X138030329Y-111465629D01*
X138021125Y-111443409D01*
X137996331Y-111383552D01*
X137979000Y-111296421D01*
X137979000Y-111207579D01*
X137996331Y-111120448D01*
X138030328Y-111038373D01*
X138079685Y-110964505D01*
X138142505Y-110901685D01*
X138179187Y-110877175D01*
X138216371Y-110852329D01*
X138216373Y-110852328D01*
X138298448Y-110818331D01*
X138385579Y-110801000D01*
X138474421Y-110801000D01*
X138561552Y-110818331D01*
X138561552Y-110818331D01*
G37*
G36*
X152531552Y-109040331D02*
G01*
X152613627Y-109074328D01*
X152613629Y-109074329D01*
X152650813Y-109099175D01*
X152687495Y-109123685D01*
X152750315Y-109186505D01*
X152799672Y-109260373D01*
X152833669Y-109342448D01*
X152851000Y-109429579D01*
X152851000Y-109518421D01*
X152833669Y-109605552D01*
X152799672Y-109687627D01*
X152799671Y-109687629D01*
X152750314Y-109761496D01*
X152687496Y-109824314D01*
X152613629Y-109873671D01*
X152613628Y-109873672D01*
X152613627Y-109873672D01*
X152531552Y-109907669D01*
X152444421Y-109925000D01*
X152355579Y-109925000D01*
X152268448Y-109907669D01*
X152186373Y-109873672D01*
X152186372Y-109873672D01*
X152186371Y-109873671D01*
X152112504Y-109824314D01*
X152049686Y-109761496D01*
X152000329Y-109687629D01*
X152000328Y-109687627D01*
X151966331Y-109605552D01*
X151949000Y-109518421D01*
X151949000Y-109429579D01*
X151966331Y-109342448D01*
X152000328Y-109260373D01*
X152049685Y-109186505D01*
X152112505Y-109123685D01*
X152149187Y-109099175D01*
X152186371Y-109074329D01*
X152186373Y-109074328D01*
X152268448Y-109040331D01*
X152355579Y-109023000D01*
X152444421Y-109023000D01*
X152531552Y-109040331D01*
X152531552Y-109040331D01*
G37*
G36*
X109859552Y-109040331D02*
G01*
X109941627Y-109074328D01*
X109941629Y-109074329D01*
X109978813Y-109099175D01*
X110015495Y-109123685D01*
X110078315Y-109186505D01*
X110127672Y-109260373D01*
X110161669Y-109342448D01*
X110179000Y-109429579D01*
X110179000Y-109518421D01*
X110161669Y-109605552D01*
X110127672Y-109687627D01*
X110127671Y-109687629D01*
X110078314Y-109761496D01*
X110015496Y-109824314D01*
X109941629Y-109873671D01*
X109941628Y-109873672D01*
X109941627Y-109873672D01*
X109859552Y-109907669D01*
X109772421Y-109925000D01*
X109683579Y-109925000D01*
X109596448Y-109907669D01*
X109514373Y-109873672D01*
X109514372Y-109873672D01*
X109514371Y-109873671D01*
X109440504Y-109824314D01*
X109377686Y-109761496D01*
X109328329Y-109687629D01*
X109328328Y-109687627D01*
X109294331Y-109605552D01*
X109277000Y-109518421D01*
X109277000Y-109429579D01*
X109294331Y-109342448D01*
X109328328Y-109260373D01*
X109377685Y-109186505D01*
X109440505Y-109123685D01*
X109477187Y-109099175D01*
X109514371Y-109074329D01*
X109514373Y-109074328D01*
X109596448Y-109040331D01*
X109683579Y-109023000D01*
X109772421Y-109023000D01*
X109859552Y-109040331D01*
X109859552Y-109040331D01*
G37*
G36*
X154408000Y-108417000D02*
G01*
X141756000Y-108417000D01*
X141756000Y-106815000D01*
X154408000Y-106815000D01*
X154408000Y-108417000D01*
X154408000Y-108417000D01*
G37*
G36*
X136433000Y-108033000D02*
G01*
X134331000Y-108033000D01*
X134331000Y-102431000D01*
X136433000Y-102431000D01*
X136433000Y-108033000D01*
X136433000Y-108033000D01*
G37*
G36*
X110679000Y-107757000D02*
G01*
X108777000Y-107757000D01*
X108777000Y-106155000D01*
X110679000Y-106155000D01*
X110679000Y-107757000D01*
X110679000Y-107757000D01*
G37*
G36*
X117791000Y-107757000D02*
G01*
X115889000Y-107757000D01*
X115889000Y-106155000D01*
X117791000Y-106155000D01*
X117791000Y-107757000D01*
X117791000Y-107757000D01*
G37*
G36*
X129729000Y-107757000D02*
G01*
X127827000Y-107757000D01*
X127827000Y-106155000D01*
X129729000Y-106155000D01*
X129729000Y-107757000D01*
X129729000Y-107757000D01*
G37*
G36*
X130687552Y-106754331D02*
G01*
X130769627Y-106788328D01*
X130769629Y-106788329D01*
X130770338Y-106788803D01*
X130843495Y-106837685D01*
X130906315Y-106900505D01*
X130955672Y-106974373D01*
X130989669Y-107056448D01*
X131007000Y-107143579D01*
X131007000Y-107232421D01*
X130989669Y-107319552D01*
X130969738Y-107367668D01*
X130955671Y-107401629D01*
X130906314Y-107475496D01*
X130843496Y-107538314D01*
X130769629Y-107587671D01*
X130769628Y-107587672D01*
X130769627Y-107587672D01*
X130687552Y-107621669D01*
X130600421Y-107639000D01*
X130511579Y-107639000D01*
X130424448Y-107621669D01*
X130342373Y-107587672D01*
X130342372Y-107587672D01*
X130342371Y-107587671D01*
X130268504Y-107538314D01*
X130205686Y-107475496D01*
X130156329Y-107401629D01*
X130142262Y-107367668D01*
X130122331Y-107319552D01*
X130105000Y-107232421D01*
X130105000Y-107143579D01*
X130122331Y-107056448D01*
X130156328Y-106974373D01*
X130205685Y-106900505D01*
X130268505Y-106837685D01*
X130341662Y-106788803D01*
X130342371Y-106788329D01*
X130342373Y-106788328D01*
X130424448Y-106754331D01*
X130511579Y-106737000D01*
X130600421Y-106737000D01*
X130687552Y-106754331D01*
X130687552Y-106754331D01*
G37*
G36*
X103826943Y-101927205D02*
G01*
X104181925Y-101997815D01*
X104683503Y-102205576D01*
X105134912Y-102507197D01*
X105518803Y-102891088D01*
X105820424Y-103342497D01*
X106028185Y-103844075D01*
X106028185Y-103844077D01*
X106134100Y-104376547D01*
X106134100Y-104919453D01*
X106125212Y-104964135D01*
X106028185Y-105451925D01*
X105820424Y-105953503D01*
X105518803Y-106404912D01*
X105134912Y-106788803D01*
X104683503Y-107090424D01*
X104181925Y-107298185D01*
X103832609Y-107367668D01*
X103649453Y-107404100D01*
X103106547Y-107404100D01*
X102923391Y-107367668D01*
X102574075Y-107298185D01*
X102072497Y-107090424D01*
X101621088Y-106788803D01*
X101237197Y-106404912D01*
X100935576Y-105953503D01*
X100727815Y-105451925D01*
X100630788Y-104964135D01*
X100621900Y-104919453D01*
X100621900Y-104376547D01*
X100727815Y-103844077D01*
X100727815Y-103844075D01*
X100935576Y-103342497D01*
X101237197Y-102891088D01*
X101621088Y-102507197D01*
X102072497Y-102205576D01*
X102574075Y-101997815D01*
X102929057Y-101927205D01*
X103106547Y-101891900D01*
X103649453Y-101891900D01*
X103826943Y-101927205D01*
X103826943Y-101927205D01*
G37*
G36*
X161230943Y-101927205D02*
G01*
X161585925Y-101997815D01*
X162087503Y-102205576D01*
X162538912Y-102507197D01*
X162922803Y-102891088D01*
X163224424Y-103342497D01*
X163432185Y-103844075D01*
X163432185Y-103844077D01*
X163538100Y-104376547D01*
X163538100Y-104919453D01*
X163529212Y-104964135D01*
X163432185Y-105451925D01*
X163224424Y-105953503D01*
X162922803Y-106404912D01*
X162538912Y-106788803D01*
X162087503Y-107090424D01*
X161585925Y-107298185D01*
X161236609Y-107367668D01*
X161053453Y-107404100D01*
X160510547Y-107404100D01*
X160327391Y-107367668D01*
X159978075Y-107298185D01*
X159476497Y-107090424D01*
X159025088Y-106788803D01*
X158641197Y-106404912D01*
X158339576Y-105953503D01*
X158131815Y-105451925D01*
X158034788Y-104964135D01*
X158025900Y-104919453D01*
X158025900Y-104376547D01*
X158131815Y-103844077D01*
X158131815Y-103844075D01*
X158339576Y-103342497D01*
X158641197Y-102891088D01*
X159025088Y-102507197D01*
X159476497Y-102205576D01*
X159978075Y-101997815D01*
X160333057Y-101927205D01*
X160510547Y-101891900D01*
X161053453Y-101891900D01*
X161230943Y-101927205D01*
X161230943Y-101927205D01*
G37*
G36*
X137291552Y-106500331D02*
G01*
X137373627Y-106534328D01*
X137373629Y-106534329D01*
X137410813Y-106559175D01*
X137447495Y-106583685D01*
X137510315Y-106646505D01*
X137559672Y-106720373D01*
X137593669Y-106802448D01*
X137611000Y-106889579D01*
X137611000Y-106978421D01*
X137593669Y-107065552D01*
X137561349Y-107143579D01*
X137559671Y-107147629D01*
X137510314Y-107221496D01*
X137447496Y-107284314D01*
X137373629Y-107333671D01*
X137373628Y-107333672D01*
X137373627Y-107333672D01*
X137291552Y-107367669D01*
X137204421Y-107385000D01*
X137115579Y-107385000D01*
X137028448Y-107367669D01*
X136946373Y-107333672D01*
X136946372Y-107333672D01*
X136946371Y-107333671D01*
X136872504Y-107284314D01*
X136809686Y-107221496D01*
X136760329Y-107147629D01*
X136758651Y-107143579D01*
X136726331Y-107065552D01*
X136709000Y-106978421D01*
X136709000Y-106889579D01*
X136726331Y-106802448D01*
X136760328Y-106720373D01*
X136809685Y-106646505D01*
X136872505Y-106583685D01*
X136909187Y-106559175D01*
X136946371Y-106534329D01*
X136946373Y-106534328D01*
X137028448Y-106500331D01*
X137115579Y-106483000D01*
X137204421Y-106483000D01*
X137291552Y-106500331D01*
X137291552Y-106500331D01*
G37*
G36*
X133227552Y-106500331D02*
G01*
X133309627Y-106534328D01*
X133309629Y-106534329D01*
X133346813Y-106559175D01*
X133383495Y-106583685D01*
X133446315Y-106646505D01*
X133495672Y-106720373D01*
X133529669Y-106802448D01*
X133547000Y-106889579D01*
X133547000Y-106978421D01*
X133529669Y-107065552D01*
X133497349Y-107143579D01*
X133495671Y-107147629D01*
X133446314Y-107221496D01*
X133383496Y-107284314D01*
X133309629Y-107333671D01*
X133309628Y-107333672D01*
X133309627Y-107333672D01*
X133227552Y-107367669D01*
X133140421Y-107385000D01*
X133051579Y-107385000D01*
X132964448Y-107367669D01*
X132882373Y-107333672D01*
X132882372Y-107333672D01*
X132882371Y-107333671D01*
X132808504Y-107284314D01*
X132745686Y-107221496D01*
X132696329Y-107147629D01*
X132694651Y-107143579D01*
X132662331Y-107065552D01*
X132645000Y-106978421D01*
X132645000Y-106889579D01*
X132662331Y-106802448D01*
X132696328Y-106720373D01*
X132745685Y-106646505D01*
X132808505Y-106583685D01*
X132845187Y-106559175D01*
X132882371Y-106534329D01*
X132882373Y-106534328D01*
X132964448Y-106500331D01*
X133051579Y-106483000D01*
X133140421Y-106483000D01*
X133227552Y-106500331D01*
X133227552Y-106500331D01*
G37*
G36*
X138815552Y-105230331D02*
G01*
X138897627Y-105264328D01*
X138897629Y-105264329D01*
X138934813Y-105289175D01*
X138971495Y-105313685D01*
X139034315Y-105376505D01*
X139083672Y-105450373D01*
X139117669Y-105532448D01*
X139135000Y-105619579D01*
X139135000Y-105708421D01*
X139117669Y-105795552D01*
X139083672Y-105877627D01*
X139083671Y-105877629D01*
X139034314Y-105951496D01*
X138971496Y-106014314D01*
X138897629Y-106063671D01*
X138897628Y-106063672D01*
X138897627Y-106063672D01*
X138815552Y-106097669D01*
X138728421Y-106115000D01*
X138639579Y-106115000D01*
X138552448Y-106097669D01*
X138470373Y-106063672D01*
X138470372Y-106063672D01*
X138470371Y-106063671D01*
X138396504Y-106014314D01*
X138333686Y-105951496D01*
X138284329Y-105877629D01*
X138284328Y-105877627D01*
X138250331Y-105795552D01*
X138233000Y-105708421D01*
X138233000Y-105619579D01*
X138250331Y-105532448D01*
X138284328Y-105450373D01*
X138333685Y-105376505D01*
X138396505Y-105313685D01*
X138433187Y-105289175D01*
X138470371Y-105264329D01*
X138470373Y-105264328D01*
X138552448Y-105230331D01*
X138639579Y-105213000D01*
X138728421Y-105213000D01*
X138815552Y-105230331D01*
X138815552Y-105230331D01*
G37*
G36*
X131957552Y-105230331D02*
G01*
X132039627Y-105264328D01*
X132039629Y-105264329D01*
X132076813Y-105289175D01*
X132113495Y-105313685D01*
X132176315Y-105376505D01*
X132225672Y-105450373D01*
X132259669Y-105532448D01*
X132277000Y-105619579D01*
X132277000Y-105708421D01*
X132259669Y-105795552D01*
X132225672Y-105877627D01*
X132225671Y-105877629D01*
X132176314Y-105951496D01*
X132113496Y-106014314D01*
X132039629Y-106063671D01*
X132039628Y-106063672D01*
X132039627Y-106063672D01*
X131957552Y-106097669D01*
X131870421Y-106115000D01*
X131781579Y-106115000D01*
X131694448Y-106097669D01*
X131612373Y-106063672D01*
X131612372Y-106063672D01*
X131612371Y-106063671D01*
X131538504Y-106014314D01*
X131475686Y-105951496D01*
X131426329Y-105877629D01*
X131426328Y-105877627D01*
X131392331Y-105795552D01*
X131375000Y-105708421D01*
X131375000Y-105619579D01*
X131392331Y-105532448D01*
X131426328Y-105450373D01*
X131475685Y-105376505D01*
X131538505Y-105313685D01*
X131575187Y-105289175D01*
X131612371Y-105264329D01*
X131612373Y-105264328D01*
X131694448Y-105230331D01*
X131781579Y-105213000D01*
X131870421Y-105213000D01*
X131957552Y-105230331D01*
X131957552Y-105230331D01*
G37*
G36*
X154673154Y-103106182D02*
G01*
X154741482Y-103119773D01*
X154838027Y-103159764D01*
X154934573Y-103199754D01*
X155108346Y-103315865D01*
X155256135Y-103463654D01*
X155372246Y-103637427D01*
X155372246Y-103637428D01*
X155452227Y-103830518D01*
X155454924Y-103844077D01*
X155493000Y-104035499D01*
X155493000Y-104244501D01*
X155452227Y-104449481D01*
X155372246Y-104642573D01*
X155256135Y-104816346D01*
X155108346Y-104964135D01*
X154934573Y-105080246D01*
X154838027Y-105120236D01*
X154741482Y-105160227D01*
X154673154Y-105173818D01*
X154536501Y-105201000D01*
X154327499Y-105201000D01*
X154190846Y-105173818D01*
X154122518Y-105160227D01*
X154025973Y-105120236D01*
X153929427Y-105080246D01*
X153755654Y-104964135D01*
X153607865Y-104816346D01*
X153491754Y-104642573D01*
X153411773Y-104449481D01*
X153371000Y-104244501D01*
X153371000Y-104035499D01*
X153409076Y-103844077D01*
X153411773Y-103830518D01*
X153491754Y-103637428D01*
X153491754Y-103637427D01*
X153607865Y-103463654D01*
X153755654Y-103315865D01*
X153929427Y-103199754D01*
X154025973Y-103159763D01*
X154122518Y-103119773D01*
X154190846Y-103106182D01*
X154327499Y-103079000D01*
X154536501Y-103079000D01*
X154673154Y-103106182D01*
X154673154Y-103106182D01*
G37*
G36*
X141973154Y-103106182D02*
G01*
X142041482Y-103119773D01*
X142138027Y-103159764D01*
X142234573Y-103199754D01*
X142408346Y-103315865D01*
X142556135Y-103463654D01*
X142672246Y-103637427D01*
X142672246Y-103637428D01*
X142752227Y-103830518D01*
X142754924Y-103844077D01*
X142793000Y-104035499D01*
X142793000Y-104244501D01*
X142752227Y-104449481D01*
X142672246Y-104642573D01*
X142556135Y-104816346D01*
X142408346Y-104964135D01*
X142234573Y-105080246D01*
X142138027Y-105120236D01*
X142041482Y-105160227D01*
X141973154Y-105173818D01*
X141836501Y-105201000D01*
X141627499Y-105201000D01*
X141490846Y-105173818D01*
X141422518Y-105160227D01*
X141325973Y-105120236D01*
X141229427Y-105080246D01*
X141055654Y-104964135D01*
X140907865Y-104816346D01*
X140791754Y-104642573D01*
X140711773Y-104449481D01*
X140671000Y-104244501D01*
X140671000Y-104035499D01*
X140709076Y-103844077D01*
X140711773Y-103830518D01*
X140791754Y-103637428D01*
X140791754Y-103637427D01*
X140907865Y-103463654D01*
X141055654Y-103315865D01*
X141229427Y-103199754D01*
X141325973Y-103159763D01*
X141422518Y-103119773D01*
X141490846Y-103106182D01*
X141627499Y-103079000D01*
X141836501Y-103079000D01*
X141973154Y-103106182D01*
X141973154Y-103106182D01*
G37*
G36*
X148323154Y-103106182D02*
G01*
X148391482Y-103119773D01*
X148488027Y-103159764D01*
X148584573Y-103199754D01*
X148758346Y-103315865D01*
X148906135Y-103463654D01*
X149022246Y-103637427D01*
X149022246Y-103637428D01*
X149102227Y-103830518D01*
X149104924Y-103844077D01*
X149143000Y-104035499D01*
X149143000Y-104244501D01*
X149102227Y-104449481D01*
X149022246Y-104642573D01*
X148906135Y-104816346D01*
X148758346Y-104964135D01*
X148584573Y-105080246D01*
X148488027Y-105120236D01*
X148391482Y-105160227D01*
X148323154Y-105173818D01*
X148186501Y-105201000D01*
X147977499Y-105201000D01*
X147840846Y-105173818D01*
X147772518Y-105160227D01*
X147675973Y-105120236D01*
X147579427Y-105080246D01*
X147405654Y-104964135D01*
X147257865Y-104816346D01*
X147141754Y-104642573D01*
X147061773Y-104449481D01*
X147021000Y-104244501D01*
X147021000Y-104035499D01*
X147059076Y-103844077D01*
X147061773Y-103830518D01*
X147141754Y-103637428D01*
X147141754Y-103637427D01*
X147257865Y-103463654D01*
X147405654Y-103315865D01*
X147579427Y-103199754D01*
X147675973Y-103159763D01*
X147772518Y-103119773D01*
X147840846Y-103106182D01*
X147977499Y-103079000D01*
X148186501Y-103079000D01*
X148323154Y-103106182D01*
X148323154Y-103106182D01*
G37*
G36*
X110679000Y-104157000D02*
G01*
X108777000Y-104157000D01*
X108777000Y-102555000D01*
X110679000Y-102555000D01*
X110679000Y-104157000D01*
X110679000Y-104157000D01*
G37*
G36*
X129729000Y-104157000D02*
G01*
X127827000Y-104157000D01*
X127827000Y-102555000D01*
X129729000Y-102555000D01*
X129729000Y-104157000D01*
X129729000Y-104157000D01*
G37*
G36*
X117791000Y-104157000D02*
G01*
X115889000Y-104157000D01*
X115889000Y-102555000D01*
X117791000Y-102555000D01*
X117791000Y-104157000D01*
X117791000Y-104157000D01*
G37*
M02*
